<svg width="19" height="18" viewBox="0 0 19 18" fill="none" xmlns="http://www.w3.org/2000/svg">
<g id="Group">
<g id="Group_2">
<g id="Group_3">
<path id="Vector" d="M0.0751343 17.9717L6.57309 2.49436C6.87895 1.773 7.23385 1.26806 7.63493 0.982401C8.04177 0.69963 8.63039 0.555359 9.4008 0.555359C10.1395 0.555359 10.7166 0.69963 11.1321 0.982401C11.5533 1.26806 11.9198 1.773 12.2285 2.49436L18.7265 17.9717H15.3101L13.5327 13.6205H5.2458L3.49147 17.9717H0.0751343ZM8.90451 4.29486L6.0768 11.3007H12.7017L9.89709 4.29486C9.84227 4.16502 9.77302 4.01497 9.68934 3.84473C9.61144 3.66872 9.51622 3.57928 9.4008 3.57928C9.28539 3.57928 9.18439 3.66872 9.10072 3.84473C9.02281 4.01497 8.95645 4.16502 8.90451 4.29486Z" fill="black"/>
</g>
</g>
</g>
</svg>
