<svg width="88" height="92" viewBox="0 0 88 92" fill="none" xmlns="http://www.w3.org/2000/svg">
<path d="M43.859 2.23336e-05C43.6392 0.00102233 43.4176 0.0373973 43.2066 0.109397L1.34337 14.6797C0.455366 14.9877 -0.100759 15.8746 0.0152412 16.8086L6.63243 71.0547C6.71043 71.6967 7.08977 72.2623 7.65977 72.5703L42.9566 91.7539C43.2526 91.9159 43.5818 91.9961 43.9098 91.9961C44.2398 91.9961 44.5727 91.914 44.8707 91.75L80.3473 72.3047C80.9113 71.9947 81.2947 71.431 81.3707 70.793L87.984 16.5508C88.1 15.6128 87.5382 14.7181 86.6402 14.4141L44.5074 0.101585C44.2974 0.0315848 44.0787 -0.000977666 43.859 2.23336e-05ZM43.9996 9.99612L69.9996 65.9961H61.1246L55.5621 54.0117H32.4371L26.8746 65.9961H17.9996L43.9996 9.99612ZM43.9996 28.9961L36.1598 45.9961H51.8395L43.9996 28.9961Z" fill="#163B6D"/>
</svg>
