<svg width="67" height="40" viewBox="0 0 67 40" fill="none" xmlns="http://www.w3.org/2000/svg">
<path d="M18.8006 14.4667C18.8006 15.3 18.8673 15.9667 19.0339 16.5333C19.2006 16.9333 19.4339 17.4667 19.7339 18.0667C19.8673 18.2 19.9006 18.4 19.9006 18.5667C19.9006 18.8 19.7673 19 19.4673 19.2333L18.0673 20.1667C17.8673 20.3 17.6673 20.3667 17.5006 20.3667C17.2673 20.3667 17.0673 20.2333 16.8339 20.0333C16.5339 19.7 16.2673 19.3667 16.0339 19C15.8339 18.6333 15.6006 18.2 15.3673 17.7C13.6339 19.7333 11.4673 20.7667 8.83394 20.7667C6.96727 20.7667 5.5006 20.2333 4.4006 19.1667C3.33394 18.1 2.76727 16.6667 2.76727 14.8667C2.76727 13.0333 3.43394 11.5333 4.76727 10.3333C6.13394 9.2 7.93394 8.6 10.2006 8.6C10.9673 8.6 11.6673 8.66667 12.5673 8.8C13.3339 8.9 14.2339 9.06667 15.1006 9.26667V7.66667C15.1006 5.96667 14.7673 4.86667 14.0673 4.1C13.3339 3.4 12.1673 3.1 10.4673 3.1C9.66727 3.1 8.86727 3.2 8.06727 3.36667C7.23394 3.56667 6.43394 3.8 5.66727 4.13333C5.3006 4.26667 5.0006 4.36667 4.9006 4.4C4.73394 4.46667 4.63394 4.46667 4.53394 4.46667C4.23394 4.46667 4.06727 4.26667 4.06727 3.8V2.7C4.06727 2.36667 4.1006 2.1 4.23394 1.93333C4.33394 1.76667 4.53394 1.63333 4.83394 1.53333C5.63394 1.06667 6.53394 0.733333 7.63394 0.466666C8.76548 0.1708 9.93104 0.0251068 11.1006 0.0333341C13.7339 0.0333341 15.6673 0.633334 16.9006 1.83333C18.1339 3.03333 18.7339 4.86667 18.7339 7.3V14.4667H18.8006ZM9.8006 17.8667C10.5339 17.8667 11.2673 17.7333 12.0673 17.4667C12.8673 17.2 13.5673 16.7 14.1673 16.0333C14.5339 15.6 14.8006 15.1333 15.0006 14.6C15.0006 14.0667 15.1673 13.4333 15.1673 12.6667V11.7667C14.5006 11.5333 13.8339 11.5333 13.1006 11.3667C12.414 11.2917 11.7245 11.2472 11.0339 11.2333C9.53394 11.2333 8.46727 11.5333 7.73394 12.1333C7.0006 12.7333 6.66727 13.5667 6.66727 14.6667C6.66727 15.7333 6.9006 16.5333 7.46727 17.0333C8.0006 17.6 8.76727 17.8667 9.8006 17.8667ZM27.6006 20.2333C27.2779 20.243 26.9577 20.1744 26.6673 20.0333C26.5673 19.8667 26.4006 19.5667 26.2673 19.1667L21.0673 2.03333C20.9339 1.53333 20.8673 1.3 20.8673 1.13333C20.8673 0.766667 21.0339 0.566667 21.4006 0.566667H23.5673C24.0006 0.566667 24.3006 0.633334 24.4339 0.800001C24.6339 0.933334 24.7673 1.23333 24.9006 1.66667L28.6006 16.3333L32.0673 1.66667C32.1673 1.23333 32.3006 0.933334 32.5006 0.800001C32.6673 0.666668 32.9673 0.566667 33.3339 0.566667H35.1673C35.5673 0.566667 35.8673 0.633334 36.0339 0.800001C36.2006 0.933334 36.3673 1.23333 36.4673 1.66667L40.0006 16.5333L43.8006 1.66667C43.9339 1.23333 44.1006 0.933334 44.2339 0.800001C44.4339 0.666668 44.7006 0.566667 45.1006 0.566667H47.1673C47.5339 0.566667 47.7339 0.766667 47.7339 1.13333C47.7339 1.23333 47.7006 1.36667 47.6673 1.53333C47.6673 1.53333 47.6006 1.8 47.5339 2.03333L42.1673 19.1667C42.0339 19.6333 41.9006 19.8667 41.6673 20.0333C41.5339 20.1667 41.2339 20.2667 40.8673 20.2667H38.9673C38.5339 20.2667 38.3339 20.2 38.0673 20.0333C37.8431 19.7957 37.7027 19.4914 37.6673 19.1667L34.2339 4.86667L30.8006 19.1333C30.7006 19.5667 30.5673 19.8667 30.4006 20.0333C30.1254 20.1833 29.8134 20.2526 29.5006 20.2333H27.6006ZM56.1006 20.8333C55.0006 20.8333 53.7673 20.7 52.6673 20.4333C51.5673 20.1667 50.7006 19.8667 50.1339 19.5667C49.8444 19.4274 49.6014 19.2075 49.4339 18.9333C49.3434 18.7464 49.2977 18.541 49.3006 18.3333V17.2C49.3006 16.7333 49.4673 16.5333 49.8006 16.5333H50.2006C50.3339 16.5333 50.5339 16.7 50.7673 16.8C51.5006 17.1333 52.3339 17.4 53.2006 17.5667C54.1006 17.7333 55.0006 17.8333 55.8339 17.8333C57.2339 17.8333 58.3339 17.6 59.0673 17.1C59.8339 16.5333 60.2339 15.9 60.2339 15C60.2339 14.3667 60.0006 13.8667 59.6339 13.4333C59.2339 13.0333 58.4673 12.6333 57.4006 12.3L54.1673 11.3C52.5673 10.7667 51.3673 10.0333 50.6339 9.03333C49.9183 8.10767 49.5313 6.97005 49.5339 5.8C49.5339 4.86667 49.7339 4.06667 50.1339 3.36667C50.5339 2.63333 51.0673 2.03333 51.6673 1.53333C52.4006 1.03333 53.1339 0.666666 54.0339 0.4C54.9006 0.133333 55.8339 0 56.8339 0C57.3006 0 57.8006 0.033334 58.3339 0.100001C58.8006 0.166667 59.2673 0.266666 59.7339 0.333333C60.2006 0.466666 60.6006 0.566667 61.0006 0.7C61.4006 0.833333 61.6673 0.966666 61.9339 1.1C62.2339 1.26667 62.4673 1.43333 62.6006 1.63333C62.7339 1.83333 62.8006 2.06667 62.8006 2.36667V3.43333C62.8006 3.9 62.6339 4.13333 62.3006 4.13333C62.1339 4.13333 61.8339 4.03333 61.4339 3.86667C60.2006 3.3 58.7673 3 57.2006 3C55.9339 3 55.0006 3.2 54.2339 3.63333C53.5673 4.03333 53.2006 4.7 53.2006 5.6C53.2006 6.23333 53.4339 6.76667 53.8673 7.16667C54.3006 7.6 55.1339 8 56.3006 8.4L59.4673 9.4C61.0673 9.86667 62.2006 10.6 62.9006 11.5333C63.5673 12.4333 63.9006 13.4667 63.9006 14.6333C63.9006 15.5667 63.7006 16.4333 63.3339 17.2C62.9339 17.9333 62.4006 18.6 61.6673 19.1333C61.0339 19.7 60.2006 20.1 59.2673 20.4C58.3339 20.7 57.2006 20.8333 56.1006 20.8333ZM60.2673 31.6333C52.9673 37 42.3673 39.8667 33.3339 39.8667C20.5006 39.8667 9.0006 35.1333 0.300603 27.3C-0.399397 26.6667 0.233936 25.8333 1.06727 26.3333C10.4673 31.7667 22.0339 35.0667 34.0339 35.0667C42.1339 35.0667 51.0339 33.4 59.2006 29.8667C60.4339 29.3667 61.4673 30.7333 60.2673 31.6333ZM63.3339 28.2C62.3673 26.9667 57.1339 27.6 54.7673 27.8667C54.0673 27.9667 53.9673 27.3333 54.6006 26.8667C58.7673 23.9667 65.6339 24.8667 66.4006 25.7667C67.2006 26.7667 66.2006 33.6333 62.3006 36.9C61.6673 37.4 61.1006 37.1333 61.3673 36.5333C62.2673 34.2667 64.2339 29.3333 63.3339 28.2Z" fill="#163B6D"/>
</svg>
