<svg width="77" height="25" viewBox="0 0 77 25" fill="none" xmlns="http://www.w3.org/2000/svg">
<path d="M54.8978 19.7394C53.1991 19.6306 52.2109 18.6644 51.9497 16.8562C51.8797 16.375 51.8797 16.3625 51.8722 13.24L51.8659 10.2175H53.3684L53.3747 13.1412C53.3797 15.7762 53.3828 16.085 53.4084 16.27C53.5103 17.0225 53.7147 17.5281 54.0609 17.8913C54.3384 18.1819 54.6641 18.3519 55.1134 18.4425C55.3259 18.485 55.9297 18.485 56.1234 18.4425C56.5579 18.3539 56.9561 18.1378 57.2672 17.8219C57.6347 17.455 57.9066 16.9344 58.0384 16.3456L58.0828 16.1469L58.0878 13.1988L58.0928 10.2506H59.6272V19.52H58.1084V18.7844C58.1084 18.285 58.1028 18.0512 58.0916 18.055C58.0571 18.0953 58.0279 18.1398 58.0047 18.1875C57.7276 18.6793 57.321 19.0857 56.8291 19.3625C56.2566 19.6781 55.6816 19.79 54.8972 19.7394H54.8978ZM72.1372 19.7319C71.5188 19.6801 70.921 19.4852 70.3909 19.1625C69.3034 18.4906 68.6597 17.3825 68.4709 15.8581C68.4059 15.3312 68.3978 14.6225 68.4522 14.1744C68.5741 13.1725 68.9678 12.1894 69.5291 11.4875C69.6728 11.3075 69.9991 10.9819 70.1791 10.8381C70.6645 10.451 71.2321 10.1804 71.8384 10.0469C72.1909 9.97 72.8103 9.93438 73.1847 9.96875C74.1234 10.0556 74.9847 10.4975 75.5697 11.1925C76.1647 11.8988 76.4909 12.8863 76.5328 14.1019C76.5391 14.2925 76.5409 14.6269 76.5366 14.8444L76.5278 15.24L73.2378 15.2444L69.9484 15.2481V15.395C69.9548 15.8725 70.0555 16.344 70.2447 16.7825C70.4066 17.1556 70.6853 17.5631 70.9134 17.76C71.3816 18.1647 71.9656 18.4112 72.5822 18.4644C72.8141 18.4863 73.4066 18.4631 73.6716 18.4225C74.4149 18.3115 75.1201 18.0211 75.7259 17.5763C75.7947 17.525 75.8597 17.4769 75.8716 17.47C75.8884 17.4594 75.8922 17.5925 75.8916 18.1544V18.8519L75.7353 18.9481C75.0644 19.359 74.3123 19.6193 73.5309 19.7113C73.2934 19.7406 72.4216 19.7538 72.1372 19.7319ZM75.0009 13.8481C75.0009 13.1 74.6853 12.2694 74.2384 11.8419C73.9202 11.5368 73.5138 11.34 73.0772 11.2794C72.8603 11.2456 72.4041 11.2581 72.1753 11.3044C71.7086 11.3931 71.2797 11.6207 70.9447 11.9575C70.5762 12.3228 70.2977 12.7687 70.1309 13.26C70.0684 13.44 69.9959 13.735 69.9734 13.9L69.9628 13.9781H75.0003L75.0009 13.8481ZM30.3728 19.4994L32.8553 12.9844L35.3309 6.49063H36.9222L36.9878 6.65938C37.1897 7.17563 41.9441 19.5056 41.9441 19.5125C41.9441 19.5162 41.5628 19.52 41.0978 19.52H40.2516L39.5666 17.6975L38.8809 15.875H33.3634L33.3397 15.9369C33.3266 15.9706 33.0334 16.7906 32.6891 17.7587L32.0622 19.5194H31.2147C30.5434 19.5194 30.3672 19.5156 30.3728 19.4994ZM38.3772 14.4844C38.3772 14.4813 37.9166 13.2325 37.3522 11.7094C36.2984 8.85938 36.2397 8.68813 36.1559 8.23C36.1172 8.01563 36.0972 8.01 36.0747 8.205C36.042 8.41743 35.9938 8.62716 35.9303 8.8325C35.9028 8.91875 35.4278 10.22 34.8753 11.725C34.537 12.6405 34.2018 13.5572 33.8697 14.475C33.8697 14.4831 34.8841 14.4894 36.1234 14.4894C37.3634 14.4894 38.3772 14.4869 38.3772 14.4844ZM42.4559 19.2825V19.045L45.2047 15.2706L47.9541 11.4956L45.4647 11.4875L42.9759 11.4794L42.9716 10.8481L42.9672 10.2175H50.1672V10.6438L47.4172 14.4394C45.9059 16.5269 44.6684 18.2381 44.6684 18.2419C44.6684 18.2463 45.8909 18.25 47.3847 18.25H50.1009V19.52H42.4559V19.2825ZM62.6278 19.5088C62.6216 19.5025 62.6166 17.41 62.6166 14.8581V10.2175H64.1197V11.1738C64.1197 11.7006 64.1259 12.1313 64.1334 12.1313C64.1416 12.1313 64.1778 12.045 64.2147 11.9394C64.3892 11.449 64.6767 11.0066 65.0541 10.6481C65.3794 10.3336 65.7943 10.1276 66.2416 10.0588C66.3697 10.0381 66.4791 10.0338 66.7366 10.0406C67.0603 10.0494 67.2291 10.0731 67.4259 10.1369L67.4884 10.1575V11.715L67.3103 11.6263C67.0029 11.4708 66.6589 11.4019 66.3153 11.4269C66.0734 11.4394 65.9147 11.4706 65.7216 11.5431C65.3283 11.6875 64.9947 11.9595 64.7741 12.3156C64.438 12.8652 64.2237 13.4805 64.1459 14.12C64.1334 14.2306 64.1266 15.1294 64.1234 16.9013L64.1191 19.52H63.3791C62.9722 19.52 62.6341 19.515 62.6278 19.5088ZM8.82407 1.10146e-06C9.07699 -0.000340597 9.32362 0.0788276 9.52909 0.226313C9.73456 0.373798 9.88847 0.582137 9.96907 0.821875L17.3103 22.5731C17.3716 22.755 17.3888 22.9488 17.3603 23.1386C17.3319 23.3284 17.2586 23.5087 17.1467 23.6645C17.0347 23.8204 16.8873 23.9474 16.7165 24.0349C16.5458 24.1225 16.3566 24.1682 16.1647 24.1681H24.6247C24.9139 24.1671 25.1932 24.0627 25.4122 23.8739C25.6312 23.685 25.7755 23.424 25.8191 23.1381C25.8483 22.9485 25.8311 22.7547 25.7691 22.5731L18.4284 0.821875C18.3478 0.582137 18.1939 0.373798 17.9885 0.226313C17.783 0.0788276 17.5364 -0.000340597 17.2834 1.10146e-06H8.82407ZM8.55094 0.0937521C8.29788 0.0941755 8.05129 0.17377 7.84573 0.32138C7.64018 0.46899 7.48596 0.677215 7.40469 0.916876L0.0634428 22.6669C0.00210655 22.8486 -0.0150813 23.0422 0.0133016 23.2319C0.0416845 23.4215 0.114822 23.6017 0.226661 23.7574C0.338501 23.9132 0.485826 24.04 0.656444 24.1276C0.827062 24.2151 1.01607 24.2607 1.20782 24.2606H7.11469C7.36779 24.2604 7.61446 24.1809 7.82013 24.0334C8.0258 23.8859 8.18016 23.6778 8.26157 23.4381L9.69657 19.2038L6.95469 16.5756C6.90469 16.5256 6.67782 16.11 6.87969 15.7581C7.10594 15.4188 7.48344 15.4188 7.48344 15.4188H11.0172L12.8722 10.0738L9.70032 0.746251C9.69219 0.700626 9.51407 0.466252 9.23407 0.280002C8.95407 0.0925023 8.55032 0.0937521 8.55032 0.0937521H8.55094ZM7.55344 15.5775C7.44158 15.5774 7.33228 15.611 7.23979 15.6739C7.14729 15.7368 7.07589 15.8261 7.03488 15.9302C6.99387 16.0343 6.98516 16.1483 7.00987 16.2574C7.03459 16.3665 7.09159 16.4656 7.17344 16.5419L14.9072 23.7606C15.1322 23.9706 15.4184 24.0938 15.7259 24.0938C15.7259 24.0938 15.9884 24.1119 16.1466 24.0869C16.5178 24.0281 16.8672 23.725 16.9828 23.5975C17.2803 23.2013 17.1453 22.585 17.1453 22.585L14.8041 15.5769L7.55344 15.5775Z" fill="#163B6D"/>
</svg>
