<svg width="15" height="18" viewBox="0 0 15 18" fill="none" xmlns="http://www.w3.org/2000/svg">
<g id="Group">
<g id="Group_2">
<g id="Group_3">
<path id="Vector" d="M14.493 17.9717H7.23327C6.6937 17.9717 6.09641 17.9313 5.44431 17.8447C4.79798 17.7524 4.15453 17.5648 3.51685 17.2792C2.87629 16.9878 2.28766 16.5463 1.75098 15.9519C1.20275 15.346 0.807445 14.6679 0.562185 13.9206C0.314039 13.1761 0.158226 12.4259 0.0889764 11.6699C0.0254976 10.9168 -0.00335693 10.2272 -0.00335693 9.60398C-0.00335693 8.7903 0.0370385 7.98238 0.123601 7.18023C0.207278 6.37232 0.365976 5.59903 0.59681 4.86036C0.833414 4.12169 1.19121 3.47247 1.67018 2.90982C2.24727 2.22597 2.88783 1.73257 3.59764 1.43248C4.31323 1.12663 5.00573 0.936193 5.67514 0.866943C6.35033 0.791922 6.89279 0.751526 7.30252 0.751526H14.2275V3.32532H8.83756C7.86806 3.32532 6.99089 3.41477 6.20606 3.59078C5.427 3.76102 4.79221 4.20826 4.30168 4.92961C4.03911 5.3076 3.81116 5.85294 3.62073 6.56853C3.43606 7.28411 3.34373 8.28246 3.34373 9.55782C3.34373 10.8505 3.43606 11.8027 3.62073 12.4086C3.81116 13.0174 3.99294 13.4589 4.16318 13.7359C4.60177 14.414 5.20482 14.8612 5.97523 15.0747C6.7514 15.2825 7.64877 15.3864 8.66443 15.3864H14.493V17.9717Z" fill="black"/>
</g>
</g>
</g>
</svg>
