<svg width="100" height="35" viewBox="0 0 100 35" fill="none" xmlns="http://www.w3.org/2000/svg">
<path d="M12.0898 0V8.46094C11.2738 8.25094 10.2943 8.17969 9.40625 8.17969C3.68825 8.17969 0 11.7651 0 17.2891C0 23.0251 3.47616 26.0076 10.1602 26.0156C12.3922 26.0156 14.4597 25.8113 17.2617 25.2812V0H12.0898ZM20.4922 0.0273438V5.58594H25.9648V0.0273438H20.4922ZM20.4922 8.01953V19.25C20.4922 23.966 20.2468 25.7606 19.4648 27.3086C18.7188 28.8226 17.5488 29.8116 15.1328 30.9336L20.2109 33.3281C22.6269 32.1261 23.7956 31.0404 24.6836 29.3164C25.6336 27.5244 25.957 25.4451 25.957 21.1211V8.01953H20.4922ZM91.1328 8.01953C85.5148 8.01953 82.01 11.5433 82 17.1953C82 22.6393 85.3962 26.0195 90.9102 26.0195C96.4942 26.0195 100 22.5008 100 16.8828C100 11.4028 96.6388 8.01953 91.1328 8.01953ZM36.168 8.17969C33.748 8.17969 31.5328 8.67497 29.2148 9.79297L29.2227 13.9688C31.2707 12.8827 33.4506 12.3203 35.3906 12.3203C36.7146 12.3203 37.1953 12.6763 37.1953 13.6562V14.8438C30.7553 15.3997 28.1328 17.1534 28.1328 20.9414C28.1328 24.4434 30.1078 26.0195 34.5078 26.0195C36.6838 26.0195 39.65 25.7699 42 25.4219V14.457C42 12.213 41.858 11.1615 41.418 10.3555C40.634 8.91547 38.864 8.17969 36.168 8.17969ZM53.8359 8.17969C51.1399 8.17969 48.4781 8.56225 45.2461 9.40625V25.8008H50.7109V12.9258C51.8109 12.6058 52.4825 12.5391 53.2305 12.5391C55.1805 12.5391 56.0938 13.3126 56.0938 15.3906V25.8008H61.3672V15.1758C61.3672 12.4698 61.0051 11.201 59.8711 10.043C58.6671 8.81497 56.6379 8.17969 53.8359 8.17969ZM75.5703 8.21094C67.5843 8.21094 63.0703 11.6877 63.0703 17.8477C63.0703 22.8077 66.1181 25.9414 70.9141 25.9414C72.3301 25.9414 73.4008 25.7271 74.4648 25.2031V25.3047C74.4648 28.7507 72.9356 30.1953 69.3516 30.1953C67.3216 30.1953 65.4062 29.7418 63.4922 28.7578H63.4883V33.7617C65.4043 34.5017 67.2488 34.8164 69.3828 34.8164C73.5748 34.8164 76.5265 33.511 78.2305 30.875C79.3985 29.077 79.793 26.896 79.793 22.25V20.7734C79.757 20.0334 79.7587 19.2947 79.7227 18.5547L79.6875 15.5977L79.6172 13.3086V12.7422C80.7152 12.8462 79.3799 12.6106 80.8359 12.8906L82.7109 8.98438C80.0849 8.45438 77.9163 8.21094 75.5703 8.21094ZM91.0547 12.3359C93.1667 12.3359 94.3789 14.0777 94.3789 17.0117C94.3789 19.9797 93.1335 21.6914 91.0195 21.6914C88.8775 21.6914 87.6172 19.9797 87.6172 17.0117C87.6172 14.0437 88.8687 12.3359 91.0547 12.3359ZM9.94141 12.5391C10.6162 12.5391 11.4464 12.6112 12.0859 12.8203V21.5156C11.3039 21.6196 10.5122 21.6562 9.90625 21.6562C7.10425 21.6562 5.57422 20.0636 5.57422 17.1836C5.57422 14.2256 7.17341 12.5391 9.94141 12.5391ZM73.7891 12.5742H74.1836H74.3594V12.9922L74.3945 14.7852L74.4297 17.2852C74.4297 18.0232 74.4648 18.7293 74.4648 19.3633V20.8398V21.2344C73.7608 21.4444 73.1562 21.582 72.4102 21.582C69.9942 21.582 68.6406 20.0302 68.6406 17.3242C68.6406 15.4262 69.315 14.0877 70.625 13.3477C71.477 12.8177 72.7251 12.5402 73.7891 12.5742ZM37.4336 18.375V21.9883C36.4136 22.1623 35.6942 22.2344 34.9102 22.2344C33.4762 22.2344 32.8281 21.7414 32.8281 20.6914C32.8281 19.2894 33.9596 18.723 37.4336 18.375Z" fill="#163B6D"/>
</svg>
