<svg width="15" height="18" viewBox="0 0 15 18" fill="none" xmlns="http://www.w3.org/2000/svg">
<g id="Group">
<g id="Group_2">
<g id="Group_3">
<path id="Vector" d="M14.2836 17.9717H3.08821C2.71022 17.9717 2.35532 17.9544 2.02638 17.914C1.70321 17.8678 1.39736 17.7062 1.11459 17.4292C0.820277 17.1522 0.641381 16.8291 0.572131 16.4597C0.508651 16.0904 0.479797 15.7413 0.479797 15.4094V3.2099C0.479797 2.45681 0.676006 1.85664 1.06842 1.4094C1.34542 1.10355 1.67436 0.91888 2.06101 0.855401C2.45342 0.786151 2.81121 0.751526 3.13438 0.751526H14.1798V3.32532H4.88871C4.7329 3.32532 4.57997 3.34263 4.42705 3.37148C4.27123 3.39457 4.12985 3.46382 4.00001 3.57923C3.86728 3.71196 3.78648 3.85046 3.75763 3.99473C3.73455 4.14189 3.72301 4.28039 3.72301 4.41023V7.88427H13.9374V10.4696H3.72301V14.4976C3.72301 14.8295 3.80668 15.0516 3.97692 15.1671C4.06926 15.2681 4.20776 15.3286 4.39242 15.3517C4.58286 15.3748 4.81369 15.3864 5.08492 15.3864H14.2836V17.9717Z" fill="black"/>
</g>
</g>
</g>
</svg>
