<svg width="89" height="109" viewBox="0 0 89 109" fill="none" xmlns="http://www.w3.org/2000/svg">
<g id="Clip path group">
<mask id="mask0_7_2306" style="mask-type:luminance" maskUnits="userSpaceOnUse" x="0" y="0" width="89" height="109">
<g id="6419024289">
<path id="Vector" d="M0.799988 0.946686H88.8773V108.053H0.799988V0.946686Z" fill="white"/>
</g>
</mask>
<g mask="url(#mask0_7_2306)">
<g id="Group">
<path id="Vector_2" d="M24.4258 101.726C50.4609 101.726 71.5677 80.5842 71.5677 54.5058C71.5677 28.4245 50.4609 7.28305 24.4258 7.28305C15.9802 7.28305 8.05682 9.52214 1.19818 13.4203C10.469 5.66145 22.4002 0.98996 35.425 0.98996C64.9341 0.98996 88.8514 24.9476 88.8514 54.5058C88.8514 84.0611 64.9341 108.022 35.425 108.022C22.4002 108.022 10.469 103.347 1.19818 95.5883C8.05682 99.4865 15.9802 101.726 24.4258 101.726Z" fill="#4F4C4C"/>
</g>
</g>
</g>
</svg>
