<svg width="75" height="75" viewBox="0 0 75 75" fill="none" xmlns="http://www.w3.org/2000/svg">
<path d="M20.8333 0C9.34583 0 0 9.34583 0 20.8333V54.1667C0 65.6542 9.34583 75 20.8333 75H54.1667C65.6542 75 75 65.6542 75 54.1667V20.8333C75 9.34583 65.6542 0 54.1667 0H20.8333ZM20.8333 8.33333H54.1667C61.0583 8.33333 66.6667 13.9417 66.6667 20.8333V54.1667C66.6667 61.0583 61.0583 66.6667 54.1667 66.6667H20.8333C13.9417 66.6667 8.33333 61.0583 8.33333 54.1667V20.8333C8.33333 13.9417 13.9417 8.33333 20.8333 8.33333ZM58.3333 12.5C57.2283 12.5 56.1685 12.939 55.3871 13.7204C54.6056 14.5018 54.1667 15.5616 54.1667 16.6667C54.1667 17.7717 54.6056 18.8315 55.3871 19.6129C56.1685 20.3943 57.2283 20.8333 58.3333 20.8333C59.4384 20.8333 60.4982 20.3943 61.2796 19.6129C62.061 18.8315 62.5 17.7717 62.5 16.6667C62.5 15.5616 62.061 14.5018 61.2796 13.7204C60.4982 12.939 59.4384 12.5 58.3333 12.5ZM37.5 16.6667C26.0125 16.6667 16.6667 26.0125 16.6667 37.5C16.6667 48.9875 26.0125 58.3333 37.5 58.3333C48.9875 58.3333 58.3333 48.9875 58.3333 37.5C58.3333 26.0125 48.9875 16.6667 37.5 16.6667ZM37.5 25C44.3917 25 50 30.6083 50 37.5C50 44.3917 44.3917 50 37.5 50C30.6083 50 25 44.3917 25 37.5C25 30.6083 30.6083 25 37.5 25Z" fill="#163B6D"/>
</svg>
