<svg width="109" height="29" viewBox="0 0 109 29" fill="none" xmlns="http://www.w3.org/2000/svg">
<path d="M26.2105 28.7142C26.0979 28.7144 25.9872 28.6854 25.8892 28.63C25.7913 28.5746 25.7093 28.4948 25.6515 28.3982L20.7365 20.2002L11.5445 22.7002C11.4045 22.734 11.2572 22.7203 11.1258 22.6613C10.9944 22.6023 10.8863 22.5013 10.8185 22.3742L0.0764895 2.18219C0.027157 2.0897 0.000922788 1.98666 2.39053e-05 1.88184C-0.000874978 1.77703 0.0235882 1.67355 0.0713273 1.58023C0.119066 1.48692 0.188665 1.40653 0.274189 1.34592C0.359713 1.28532 0.458624 1.2463 0.56249 1.23219L9.68249 0.00618711C9.80849 -0.0113228 9.93686 0.00852617 10.0517 0.063275C10.1665 0.118024 10.2628 0.205265 10.3285 0.314187L21.3285 18.6882L34.1225 15.2082L29.8565 9.18319C29.795 9.09754 29.7552 8.99822 29.7406 8.89377C29.726 8.78933 29.7371 8.68291 29.7728 8.58369C29.8085 8.48448 29.8679 8.39544 29.9457 8.32427C30.0235 8.25311 30.1175 8.20194 30.2195 8.17519L36.2045 6.76019C36.3241 6.73173 36.4493 6.73777 36.5656 6.77759C36.6818 6.81742 36.7845 6.8894 36.8615 6.98519L42.0415 13.4532C42.109 13.5374 42.1545 13.637 42.1739 13.7432C42.1932 13.8493 42.1858 13.9587 42.1524 14.0613C42.119 14.1639 42.0605 14.2565 41.9823 14.3309C41.9041 14.4052 41.8086 14.459 41.7045 14.4872L36.2645 15.9712L41.0275 22.6712C41.0858 22.7534 41.1243 22.848 41.1397 22.9476C41.1552 23.0472 41.1473 23.1491 41.1167 23.2451C41.086 23.3411 41.0335 23.4287 40.9631 23.5009C40.8928 23.5731 40.8067 23.628 40.7115 23.6612L26.4165 28.6742C26.3501 28.6987 26.2812 28.7122 26.2105 28.7142ZM22.0385 19.8442L26.4935 27.2742L39.4765 22.7292L34.9425 16.3372L22.0385 19.8442ZM1.66349 2.38719L11.7165 21.3072L20.0595 19.0432L9.43449 1.35119L1.66349 2.38719ZM31.4965 9.22119L35.4965 14.8472L40.4585 13.4972L36.1415 8.12119L31.4965 9.22119ZM48.8835 7.25719H50.1835V21.1972H48.8885L48.8835 7.25719ZM62.8835 11.1402V21.1972H61.6065V19.4572C61.1115 20.0772 60.4885 20.5852 59.7805 20.9452C58.817 21.4058 57.7333 21.5523 56.6821 21.3641C55.6309 21.1759 54.6653 20.6624 53.9215 19.8962C53.4296 19.4021 53.0423 18.814 52.7827 18.167C52.5231 17.5199 52.3965 16.8272 52.4105 16.1302C52.3999 15.4398 52.5296 14.7545 52.7917 14.1157C53.0539 13.477 53.443 12.8981 53.9355 12.4142C54.4089 11.9168 54.9802 11.5229 55.6134 11.2573C56.2466 10.9918 56.9279 10.8603 57.6145 10.8712C58.3945 10.8612 59.1645 11.0412 59.8565 11.3982C60.5592 11.7795 61.1625 12.3208 61.6175 12.9782V11.1382L62.8835 11.1402ZM57.7135 12.1402C57.01 12.1356 56.3182 12.3209 55.7112 12.6766C55.1042 13.0323 54.6044 13.5452 54.2645 14.1612C53.5415 15.4192 53.5415 16.9662 54.2645 18.2242C54.6075 18.8492 55.1125 19.3702 55.7265 19.7322C56.322 20.0877 57.003 20.2744 57.6965 20.2722C58.4025 20.2724 59.0962 20.0876 59.7085 19.7362C60.3215 19.3992 60.8285 18.8962 61.1705 18.2862C61.5193 17.6528 61.6962 16.9391 61.6835 16.2162C61.6983 15.6774 61.604 15.1412 61.4064 14.6398C61.2088 14.1383 60.9119 13.682 60.5335 13.2982C60.1686 12.9208 59.7297 12.6228 59.2443 12.423C58.7588 12.2232 58.2373 12.1259 57.7125 12.1372L57.7135 12.1402ZM65.3055 11.1402H66.6275V12.6102C66.9584 12.1027 67.3825 11.6626 67.8775 11.3132C68.2807 11.0372 68.7569 10.8875 69.2455 10.8832C69.652 10.8965 70.0481 11.0147 70.3955 11.2262L69.7175 12.3262C69.4984 12.2212 69.2602 12.1617 69.0175 12.1512C68.5493 12.1655 68.1036 12.355 67.7685 12.6822C67.3105 13.1326 66.9912 13.7049 66.8485 14.3312C66.6952 14.9045 66.6185 16.0625 66.6185 17.8052V21.2082H65.2965L65.3055 11.1402ZM81.5055 11.1402V21.1972H80.2295V19.4572C79.7345 20.0772 79.1115 20.5852 78.4035 20.9452C77.44 21.4058 76.3563 21.5523 75.3051 21.3641C74.2539 21.1759 73.2883 20.6624 72.5445 19.8962C72.0526 19.4021 71.6653 18.814 71.4057 18.167C71.1461 17.5199 71.0195 16.8272 71.0335 16.1302C71.0135 14.7352 71.5635 13.3902 72.5605 12.4142C73.0339 11.9168 73.6052 11.5229 74.2384 11.2573C74.8716 10.9918 75.5529 10.8603 76.2395 10.8712C77.0195 10.8612 77.7895 11.0412 78.4815 11.3982C79.1842 11.7795 79.7875 12.3208 80.2425 12.9782V11.1382L81.5055 11.1402ZM76.3355 12.1402C75.632 12.1356 74.9402 12.3209 74.3332 12.6766C73.7262 13.0323 73.2264 13.5452 72.8865 14.1612C72.1635 15.4192 72.1635 16.9662 72.8865 18.2242C73.2295 18.8492 73.7345 19.3702 74.3485 19.7322C74.944 20.0877 75.625 20.2744 76.3185 20.2722C77.0245 20.2724 77.7182 20.0876 78.3305 19.7362C78.9435 19.3992 79.4505 18.8962 79.7925 18.2862C80.1413 17.6528 80.3182 16.9391 80.3055 16.2162C80.3218 15.6758 80.2283 15.1378 80.0309 14.6345C79.8334 14.1313 79.5359 13.6733 79.1565 13.2882C78.7919 12.911 78.3533 12.6132 77.8682 12.4134C77.3831 12.2137 76.862 12.1162 76.3375 12.1272L76.3355 12.1402ZM83.4685 11.1402H84.8485L88.2245 18.4702L91.5645 11.1402H92.9445L88.3445 21.1982H88.1145L83.4685 11.1402ZM103.375 17.8602L104.475 18.4332C104.167 19.0698 103.748 19.6461 103.236 20.1352C102.777 20.5609 102.24 20.8949 101.654 21.1192C101.018 21.3531 100.344 21.4677 99.6655 21.4572C98.0255 21.4572 96.7421 20.9239 95.8155 19.8572C94.9206 18.8538 94.429 17.5546 94.4355 16.2102C94.4225 14.9722 94.8375 13.7672 95.6105 12.8102C96.074 12.1967 96.6781 11.7035 97.3719 11.3722C98.0657 11.0408 98.829 10.881 99.5975 10.9062C100.388 10.8802 101.173 11.0437 101.888 11.3829C102.602 11.7221 103.225 12.2273 103.704 12.8562C104.432 13.7762 104.799 14.9262 104.804 16.3062H95.7495C95.7345 17.3732 96.1365 18.4032 96.8695 19.1782C97.2121 19.5415 97.6271 19.8289 98.0877 20.0218C98.5483 20.2148 99.0442 20.3089 99.5435 20.2982C100.054 20.2986 100.56 20.2082 101.038 20.0312C101.489 19.8711 101.908 19.6313 102.273 19.3232C102.711 18.9008 103.082 18.4146 103.374 17.8812L103.375 17.8602ZM103.375 15.1602C103.245 14.5616 102.988 13.9979 102.621 13.5072C102.269 13.0772 101.821 12.7355 101.313 12.5092C100.78 12.2592 100.198 12.1292 99.6095 12.1292C98.6708 12.1102 97.7603 12.4508 97.0645 13.0812C96.5465 13.5479 96.1548 14.2379 95.8895 15.1512L103.375 15.1602ZM107.015 7.26819H108.31V21.2082H107.015V7.26819Z" fill="#163B6D"/>
</svg>
