<svg xmlns="http://www.w3.org/2000/svg" xmlns:xlink="http://www.w3.org/1999/xlink" width="500" zoomAndPan="magnify" viewBox="0 0 375 374.999991" height="500" preserveAspectRatio="xMidYMid meet" version="1.0"><defs><g/><clipPath id="b8a499ab6e"><path d="M 88.488281 96.757812 L 238 96.757812 L 238 278.257812 L 88.488281 278.257812 Z M 88.488281 96.757812 " clip-rule="nonzero"/></clipPath><clipPath id="6419024289"><path d="M 150 115 L 269.238281 115 L 269.238281 260 L 150 260 Z M 150 115 " clip-rule="nonzero"/></clipPath><clipPath id="d81dac1279"><path d="M 81.003906 165.042969 L 277.007812 165.042969 L 277.007812 218.945312 L 81.003906 218.945312 Z M 81.003906 165.042969 " clip-rule="nonzero"/></clipPath></defs><g clip-path="url(#b8a499ab6e)"><path fill="#163b6d" d="M 197.6875 267.554688 C 153.550781 267.554688 117.773438 231.714844 117.773438 187.507812 C 117.773438 143.296875 153.550781 107.457031 197.6875 107.457031 C 212.011719 107.457031 225.441406 111.25 237.066406 117.859375 C 221.351562 104.707031 201.121094 96.785156 179.042969 96.785156 C 129.023438 96.785156 88.472656 137.402344 88.472656 187.507812 C 88.472656 237.609375 129.023438 278.226562 179.042969 278.226562 C 201.121094 278.226562 221.347656 270.304688 237.066406 257.152344 C 225.441406 263.761719 212.011719 267.554688 197.6875 267.554688 " fill-opacity="1" fill-rule="nonzero"/></g><g clip-path="url(#6419024289)"><path fill="#4f4c4c" d="M 181.984375 251.433594 C 217.230469 251.433594 245.804688 222.8125 245.804688 187.507812 C 245.804688 152.199219 217.230469 123.578125 181.984375 123.578125 C 170.550781 123.578125 159.824219 126.609375 150.539062 131.886719 C 163.089844 121.382812 179.242188 115.058594 196.875 115.058594 C 236.824219 115.058594 269.203125 147.492188 269.203125 187.507812 C 269.203125 227.519531 236.824219 259.957031 196.875 259.957031 C 179.242188 259.957031 163.089844 253.628906 150.539062 243.125 C 159.824219 248.402344 170.550781 251.433594 181.984375 251.433594 " fill-opacity="1" fill-rule="nonzero"/></g><g clip-path="url(#d81dac1279)"><path fill="#ffffff" d="M 81.003906 165.042969 L 277.03125 165.042969 L 277.03125 218.945312 L 81.003906 218.945312 Z M 81.003906 165.042969 " fill-opacity="1" fill-rule="nonzero"/></g><g fill="#4f4c52" fill-opacity="1"><g transform="translate(136.204401, 222.573648)"><g><path d="M 3.671875 0.078125 C 3.109375 0.078125 2.597656 -0.0195312 2.140625 -0.21875 C 1.691406 -0.414062 1.335938 -0.691406 1.078125 -1.046875 C 0.828125 -1.410156 0.703125 -1.835938 0.703125 -2.328125 L 2.171875 -2.328125 C 2.203125 -1.960938 2.34375 -1.660156 2.59375 -1.421875 C 2.851562 -1.191406 3.210938 -1.078125 3.671875 -1.078125 C 4.148438 -1.078125 4.519531 -1.191406 4.78125 -1.421875 C 5.050781 -1.648438 5.1875 -1.945312 5.1875 -2.3125 C 5.1875 -2.59375 5.101562 -2.820312 4.9375 -3 C 4.769531 -3.175781 4.5625 -3.3125 4.3125 -3.40625 C 4.070312 -3.507812 3.734375 -3.613281 3.296875 -3.71875 C 2.753906 -3.863281 2.3125 -4.007812 1.96875 -4.15625 C 1.625 -4.3125 1.328125 -4.546875 1.078125 -4.859375 C 0.835938 -5.171875 0.71875 -5.59375 0.71875 -6.125 C 0.71875 -6.601562 0.835938 -7.023438 1.078125 -7.390625 C 1.328125 -7.753906 1.664062 -8.03125 2.09375 -8.21875 C 2.53125 -8.414062 3.035156 -8.515625 3.609375 -8.515625 C 4.429688 -8.515625 5.097656 -8.3125 5.609375 -7.90625 C 6.128906 -7.5 6.421875 -6.941406 6.484375 -6.234375 L 4.953125 -6.234375 C 4.929688 -6.535156 4.785156 -6.796875 4.515625 -7.015625 C 4.253906 -7.234375 3.90625 -7.34375 3.46875 -7.34375 C 3.070312 -7.34375 2.75 -7.238281 2.5 -7.03125 C 2.25 -6.832031 2.125 -6.546875 2.125 -6.171875 C 2.125 -5.910156 2.203125 -5.695312 2.359375 -5.53125 C 2.515625 -5.363281 2.710938 -5.234375 2.953125 -5.140625 C 3.203125 -5.046875 3.535156 -4.941406 3.953125 -4.828125 C 4.515625 -4.671875 4.96875 -4.515625 5.3125 -4.359375 C 5.664062 -4.210938 5.960938 -3.976562 6.203125 -3.65625 C 6.453125 -3.34375 6.578125 -2.914062 6.578125 -2.375 C 6.578125 -1.945312 6.460938 -1.546875 6.234375 -1.171875 C 6.003906 -0.796875 5.671875 -0.492188 5.234375 -0.265625 C 4.796875 -0.0351562 4.273438 0.078125 3.671875 0.078125 Z M 3.671875 0.078125 "/></g></g></g><g fill="#4f4c52" fill-opacity="1"><g transform="translate(145.95347, 222.573648)"><g><path d="M 4.734375 0.078125 C 3.953125 0.078125 3.234375 -0.101562 2.578125 -0.46875 C 1.921875 -0.832031 1.398438 -1.34375 1.015625 -2 C 0.640625 -2.65625 0.453125 -3.394531 0.453125 -4.21875 C 0.453125 -5.039062 0.640625 -5.773438 1.015625 -6.421875 C 1.398438 -7.078125 1.921875 -7.585938 2.578125 -7.953125 C 3.234375 -8.328125 3.953125 -8.515625 4.734375 -8.515625 C 5.523438 -8.515625 6.25 -8.328125 6.90625 -7.953125 C 7.5625 -7.585938 8.078125 -7.078125 8.453125 -6.421875 C 8.835938 -5.773438 9.03125 -5.039062 9.03125 -4.21875 C 9.03125 -3.394531 8.835938 -2.65625 8.453125 -2 C 8.078125 -1.34375 7.5625 -0.832031 6.90625 -0.46875 C 6.25 -0.101562 5.523438 0.078125 4.734375 0.078125 Z M 4.734375 -1.109375 C 5.296875 -1.109375 5.789062 -1.234375 6.21875 -1.484375 C 6.65625 -1.742188 7 -2.109375 7.25 -2.578125 C 7.5 -3.054688 7.625 -3.601562 7.625 -4.21875 C 7.625 -4.84375 7.5 -5.390625 7.25 -5.859375 C 7 -6.328125 6.65625 -6.679688 6.21875 -6.921875 C 5.789062 -7.171875 5.296875 -7.296875 4.734375 -7.296875 C 4.179688 -7.296875 3.6875 -7.171875 3.25 -6.921875 C 2.8125 -6.679688 2.46875 -6.328125 2.21875 -5.859375 C 1.976562 -5.390625 1.859375 -4.84375 1.859375 -4.21875 C 1.859375 -3.601562 1.976562 -3.054688 2.21875 -2.578125 C 2.46875 -2.109375 2.8125 -1.742188 3.25 -1.484375 C 3.6875 -1.234375 4.179688 -1.109375 4.734375 -1.109375 Z M 4.734375 -1.109375 "/></g></g></g><g fill="#4f4c52" fill-opacity="1"><g transform="translate(157.879546, 222.573648)"><g><path d="M 2.28125 -1.109375 L 5.125 -1.109375 L 5.125 0 L 0.90625 0 L 0.90625 -8.40625 L 2.28125 -8.40625 Z M 2.28125 -1.109375 "/></g></g></g><g fill="#4f4c52" fill-opacity="1"><g transform="translate(165.693505, 222.573648)"><g><path d="M 2.28125 -8.40625 L 2.28125 -3.046875 C 2.28125 -2.410156 2.445312 -1.929688 2.78125 -1.609375 C 3.113281 -1.285156 3.578125 -1.125 4.171875 -1.125 C 4.773438 -1.125 5.242188 -1.285156 5.578125 -1.609375 C 5.910156 -1.929688 6.078125 -2.410156 6.078125 -3.046875 L 6.078125 -8.40625 L 7.46875 -8.40625 L 7.46875 -3.078125 C 7.46875 -2.390625 7.316406 -1.804688 7.015625 -1.328125 C 6.710938 -0.847656 6.3125 -0.492188 5.8125 -0.265625 C 5.3125 -0.0351562 4.757812 0.078125 4.15625 0.078125 C 3.550781 0.078125 3 -0.0351562 2.5 -0.265625 C 2.007812 -0.492188 1.617188 -0.847656 1.328125 -1.328125 C 1.035156 -1.804688 0.890625 -2.390625 0.890625 -3.078125 L 0.890625 -8.40625 Z M 2.28125 -8.40625 "/></g></g></g><g fill="#4f4c52" fill-opacity="1"><g transform="translate(176.482693, 222.573648)"><g><path d="M 6.34375 -8.40625 L 6.34375 -7.28125 L 4.09375 -7.28125 L 4.09375 0 L 2.71875 0 L 2.71875 -7.28125 L 0.46875 -7.28125 L 0.46875 -8.40625 Z M 6.34375 -8.40625 "/></g></g></g><g fill="#4f4c52" fill-opacity="1"><g transform="translate(185.747983, 222.573648)"><g><path d="M 2.28125 -8.40625 L 2.28125 0 L 0.90625 0 L 0.90625 -8.40625 Z M 2.28125 -8.40625 "/></g></g></g><g fill="#4f4c52" fill-opacity="1"><g transform="translate(191.384949, 222.573648)"><g><path d="M 4.734375 0.078125 C 3.953125 0.078125 3.234375 -0.101562 2.578125 -0.46875 C 1.921875 -0.832031 1.398438 -1.34375 1.015625 -2 C 0.640625 -2.65625 0.453125 -3.394531 0.453125 -4.21875 C 0.453125 -5.039062 0.640625 -5.773438 1.015625 -6.421875 C 1.398438 -7.078125 1.921875 -7.585938 2.578125 -7.953125 C 3.234375 -8.328125 3.953125 -8.515625 4.734375 -8.515625 C 5.523438 -8.515625 6.25 -8.328125 6.90625 -7.953125 C 7.5625 -7.585938 8.078125 -7.078125 8.453125 -6.421875 C 8.835938 -5.773438 9.03125 -5.039062 9.03125 -4.21875 C 9.03125 -3.394531 8.835938 -2.65625 8.453125 -2 C 8.078125 -1.34375 7.5625 -0.832031 6.90625 -0.46875 C 6.25 -0.101562 5.523438 0.078125 4.734375 0.078125 Z M 4.734375 -1.109375 C 5.296875 -1.109375 5.789062 -1.234375 6.21875 -1.484375 C 6.65625 -1.742188 7 -2.109375 7.25 -2.578125 C 7.5 -3.054688 7.625 -3.601562 7.625 -4.21875 C 7.625 -4.84375 7.5 -5.390625 7.25 -5.859375 C 7 -6.328125 6.65625 -6.679688 6.21875 -6.921875 C 5.789062 -7.171875 5.296875 -7.296875 4.734375 -7.296875 C 4.179688 -7.296875 3.6875 -7.171875 3.25 -6.921875 C 2.8125 -6.679688 2.46875 -6.328125 2.21875 -5.859375 C 1.976562 -5.390625 1.859375 -4.84375 1.859375 -4.21875 C 1.859375 -3.601562 1.976562 -3.054688 2.21875 -2.578125 C 2.46875 -2.109375 2.8125 -1.742188 3.25 -1.484375 C 3.6875 -1.234375 4.179688 -1.109375 4.734375 -1.109375 Z M 4.734375 -1.109375 "/></g></g></g><g fill="#4f4c52" fill-opacity="1"><g transform="translate(203.311023, 222.573648)"><g><path d="M 7.8125 0 L 6.4375 0 L 2.28125 -6.28125 L 2.28125 0 L 0.90625 0 L 0.90625 -8.421875 L 2.28125 -8.421875 L 6.4375 -2.15625 L 6.4375 -8.421875 L 7.8125 -8.421875 Z M 7.8125 0 "/></g></g></g><g fill="#4f4c52" fill-opacity="1"><g transform="translate(214.475145, 222.573648)"><g><path d="M 3.671875 0.078125 C 3.109375 0.078125 2.597656 -0.0195312 2.140625 -0.21875 C 1.691406 -0.414062 1.335938 -0.691406 1.078125 -1.046875 C 0.828125 -1.410156 0.703125 -1.835938 0.703125 -2.328125 L 2.171875 -2.328125 C 2.203125 -1.960938 2.34375 -1.660156 2.59375 -1.421875 C 2.851562 -1.191406 3.210938 -1.078125 3.671875 -1.078125 C 4.148438 -1.078125 4.519531 -1.191406 4.78125 -1.421875 C 5.050781 -1.648438 5.1875 -1.945312 5.1875 -2.3125 C 5.1875 -2.59375 5.101562 -2.820312 4.9375 -3 C 4.769531 -3.175781 4.5625 -3.3125 4.3125 -3.40625 C 4.070312 -3.507812 3.734375 -3.613281 3.296875 -3.71875 C 2.753906 -3.863281 2.3125 -4.007812 1.96875 -4.15625 C 1.625 -4.3125 1.328125 -4.546875 1.078125 -4.859375 C 0.835938 -5.171875 0.71875 -5.59375 0.71875 -6.125 C 0.71875 -6.601562 0.835938 -7.023438 1.078125 -7.390625 C 1.328125 -7.753906 1.664062 -8.03125 2.09375 -8.21875 C 2.53125 -8.414062 3.035156 -8.515625 3.609375 -8.515625 C 4.429688 -8.515625 5.097656 -8.3125 5.609375 -7.90625 C 6.128906 -7.5 6.421875 -6.941406 6.484375 -6.234375 L 4.953125 -6.234375 C 4.929688 -6.535156 4.785156 -6.796875 4.515625 -7.015625 C 4.253906 -7.234375 3.90625 -7.34375 3.46875 -7.34375 C 3.070312 -7.34375 2.75 -7.238281 2.5 -7.03125 C 2.25 -6.832031 2.125 -6.546875 2.125 -6.171875 C 2.125 -5.910156 2.203125 -5.695312 2.359375 -5.53125 C 2.515625 -5.363281 2.710938 -5.234375 2.953125 -5.140625 C 3.203125 -5.046875 3.535156 -4.941406 3.953125 -4.828125 C 4.515625 -4.671875 4.96875 -4.515625 5.3125 -4.359375 C 5.664062 -4.210938 5.960938 -3.976562 6.203125 -3.65625 C 6.453125 -3.34375 6.578125 -2.914062 6.578125 -2.375 C 6.578125 -1.945312 6.460938 -1.546875 6.234375 -1.171875 C 6.003906 -0.796875 5.671875 -0.492188 5.234375 -0.265625 C 4.796875 -0.0351562 4.273438 0.078125 3.671875 0.078125 Z M 3.671875 0.078125 "/></g></g></g><g fill="#d50404" fill-opacity="1"><g transform="translate(90.451892, 203.030295)"><g><path d="M -1 0 L 7.796875 -20.953125 C 8.210938 -21.929688 8.691406 -22.613281 9.234375 -23 C 9.785156 -23.382812 10.582031 -23.578125 11.625 -23.578125 C 12.625 -23.578125 13.40625 -23.382812 13.96875 -23 C 14.539062 -22.613281 15.035156 -21.929688 15.453125 -20.953125 L 24.25 0 L 19.625 0 L 17.21875 -5.890625 L 6 -5.890625 L 3.625 0 Z M 10.953125 -18.515625 L 7.125 -9.03125 L 16.09375 -9.03125 L 12.296875 -18.515625 C 12.222656 -18.691406 12.128906 -18.894531 12.015625 -19.125 C 11.910156 -19.363281 11.78125 -19.484375 11.625 -19.484375 C 11.46875 -19.484375 11.332031 -19.363281 11.21875 -19.125 C 11.113281 -18.894531 11.023438 -18.691406 10.953125 -18.515625 Z M 10.953125 -18.515625 "/></g></g></g><g fill="#d50404" fill-opacity="1"><g transform="translate(113.695435, 203.030295)"><g><path d="M 25.8125 -18.09375 L 19.859375 -2.53125 C 19.503906 -1.644531 19.117188 -0.957031 18.703125 -0.46875 C 18.296875 0.0195312 17.566406 0.265625 16.515625 0.265625 C 15.785156 0.265625 15.207031 0.132812 14.78125 -0.125 C 14.363281 -0.394531 14.035156 -0.738281 13.796875 -1.15625 C 13.566406 -1.582031 13.363281 -2.039062 13.1875 -2.53125 L 7.234375 -18.09375 C 7.179688 -18.21875 7.097656 -18.375 6.984375 -18.5625 C 6.878906 -18.757812 6.769531 -18.859375 6.65625 -18.859375 C 6.476562 -18.859375 6.375 -18.75 6.34375 -18.53125 C 6.3125 -18.320312 6.296875 -18.195312 6.296875 -18.15625 L 6.390625 0 L 2 0 L 2 -20.515625 C 2 -21.273438 2.160156 -21.863281 2.484375 -22.28125 C 2.804688 -22.707031 3.1875 -23.007812 3.625 -23.1875 C 4.070312 -23.363281 4.5 -23.472656 4.90625 -23.515625 C 5.320312 -23.554688 5.609375 -23.578125 5.765625 -23.578125 C 6.648438 -23.578125 7.351562 -23.4375 7.875 -23.15625 C 8.394531 -22.882812 8.804688 -22.523438 9.109375 -22.078125 C 9.410156 -21.640625 9.660156 -21.144531 9.859375 -20.59375 L 15.890625 -5.03125 C 16.003906 -4.78125 16.109375 -4.570312 16.203125 -4.40625 C 16.304688 -4.25 16.410156 -4.171875 16.515625 -4.171875 C 16.628906 -4.171875 16.734375 -4.25 16.828125 -4.40625 C 16.929688 -4.570312 17.039062 -4.78125 17.15625 -5.03125 L 23.1875 -20.59375 C 23.519531 -21.476562 23.894531 -22.128906 24.3125 -22.546875 C 24.738281 -22.972656 25.207031 -23.25 25.71875 -23.375 C 26.226562 -23.507812 26.75 -23.578125 27.28125 -23.578125 C 28.375 -23.578125 29.273438 -23.332031 29.984375 -22.84375 C 30.691406 -22.363281 31.046875 -21.585938 31.046875 -20.515625 L 31.046875 0 L 26.65625 0 L 26.78125 -18.15625 C 26.78125 -18.46875 26.726562 -18.660156 26.625 -18.734375 C 26.53125 -18.816406 26.453125 -18.859375 26.390625 -18.859375 C 26.273438 -18.859375 26.160156 -18.757812 26.046875 -18.5625 C 25.941406 -18.375 25.863281 -18.21875 25.8125 -18.09375 Z M 25.8125 -18.09375 "/></g></g></g><g fill="#d50404" fill-opacity="1"><g transform="translate(146.729245, 203.030295)"><g><path d="M 1.296875 0 L 1.296875 -3.5 L 14.21875 -3.5 C 14.9375 -3.5 15.441406 -3.65625 15.734375 -3.96875 C 16.035156 -4.28125 16.222656 -4.632812 16.296875 -5.03125 C 16.378906 -5.425781 16.421875 -5.757812 16.421875 -6.03125 C 16.421875 -6.476562 16.296875 -6.945312 16.046875 -7.4375 C 15.804688 -7.9375 15.175781 -8.34375 14.15625 -8.65625 L 4.96875 -11.5625 C 4.875 -11.582031 4.660156 -11.660156 4.328125 -11.796875 C 3.992188 -11.929688 3.625 -12.117188 3.21875 -12.359375 C 2.820312 -12.597656 2.484375 -12.910156 2.203125 -13.296875 C 1.671875 -13.910156 1.335938 -14.632812 1.203125 -15.46875 C 1.066406 -16.300781 1 -17.039062 1 -17.6875 C 1 -18.394531 1.082031 -19.140625 1.25 -19.921875 C 1.414062 -20.703125 1.832031 -21.398438 2.5 -22.015625 C 3.09375 -22.597656 3.734375 -22.957031 4.421875 -23.09375 C 5.117188 -23.238281 5.753906 -23.3125 6.328125 -23.3125 L 19.75 -23.3125 L 19.75 -19.828125 L 7.828125 -19.828125 C 7.515625 -19.828125 7.195312 -19.796875 6.875 -19.734375 C 6.550781 -19.679688 6.257812 -19.53125 6 -19.28125 C 5.707031 -19.019531 5.53125 -18.710938 5.46875 -18.359375 C 5.414062 -18.003906 5.390625 -17.710938 5.390625 -17.484375 C 5.390625 -16.972656 5.515625 -16.484375 5.765625 -16.015625 C 6.023438 -15.554688 6.625 -15.171875 7.5625 -14.859375 L 16.09375 -12.15625 C 17.269531 -11.800781 18.1875 -11.40625 18.84375 -10.96875 C 19.5 -10.539062 19.96875 -10.003906 20.25 -9.359375 C 20.5625 -8.765625 20.753906 -8.15625 20.828125 -7.53125 C 20.910156 -6.90625 20.953125 -6.394531 20.953125 -6 C 20.953125 -5.257812 20.878906 -4.503906 20.734375 -3.734375 C 20.585938 -2.972656 20.269531 -2.285156 19.78125 -1.671875 C 19.207031 -0.910156 18.566406 -0.441406 17.859375 -0.265625 C 17.148438 -0.0859375 16.40625 0 15.625 0 Z M 1.296875 0 "/></g></g></g><g fill="#d50404" fill-opacity="1"><g transform="translate(168.674081, 203.030295)"><g><path d="M 6.390625 0 L 2 0 L 2 -23.3125 L 6.390625 -23.3125 Z M 6.390625 0 "/></g></g></g><g fill="#d50404" fill-opacity="1"><g transform="translate(177.065731, 203.030295)"><g><path d="M 13.15625 0 L 8.765625 0 L 8.765625 -19.828125 L -0.328125 -19.828125 L -0.328125 -23.3125 L 22.28125 -23.3125 L 22.28125 -19.828125 L 13.15625 -19.828125 Z M 13.15625 0 "/></g></g></g><g fill="#d50404" fill-opacity="1"><g transform="translate(199.010567, 203.030295)"><g><path d="M 20.6875 0 L 5.53125 0 C 5.019531 0 4.539062 -0.0234375 4.09375 -0.078125 C 3.65625 -0.140625 3.242188 -0.359375 2.859375 -0.734375 C 2.460938 -1.109375 2.21875 -1.546875 2.125 -2.046875 C 2.039062 -2.546875 2 -3.019531 2 -3.46875 L 2 -19.984375 C 2 -21.003906 2.265625 -21.816406 2.796875 -22.421875 C 3.171875 -22.835938 3.617188 -23.085938 4.140625 -23.171875 C 4.671875 -23.265625 5.15625 -23.3125 5.59375 -23.3125 L 20.546875 -23.3125 L 20.546875 -19.828125 L 7.96875 -19.828125 C 7.757812 -19.828125 7.550781 -19.804688 7.34375 -19.765625 C 7.132812 -19.734375 6.941406 -19.640625 6.765625 -19.484375 C 6.585938 -19.304688 6.476562 -19.117188 6.4375 -18.921875 C 6.40625 -18.722656 6.390625 -18.535156 6.390625 -18.359375 L 6.390625 -13.65625 L 20.21875 -13.65625 L 20.21875 -10.15625 L 6.390625 -10.15625 L 6.390625 -4.703125 C 6.390625 -4.253906 6.503906 -3.953125 6.734375 -3.796875 C 6.859375 -3.660156 7.046875 -3.578125 7.296875 -3.546875 C 7.554688 -3.515625 7.867188 -3.5 8.234375 -3.5 L 20.6875 -3.5 Z M 20.6875 0 "/></g></g></g><g fill="#d50404" fill-opacity="1"><g transform="translate(220.689007, 203.030295)"><g><path d="M 20.953125 0 L 11.125 0 C 10.394531 0 9.585938 -0.0546875 8.703125 -0.171875 C 7.828125 -0.296875 6.957031 -0.550781 6.09375 -0.9375 C 5.226562 -1.332031 4.429688 -1.929688 3.703125 -2.734375 C 2.960938 -3.554688 2.425781 -4.472656 2.09375 -5.484375 C 1.757812 -6.492188 1.546875 -7.507812 1.453125 -8.53125 C 1.367188 -9.550781 1.328125 -10.484375 1.328125 -11.328125 C 1.328125 -12.429688 1.382812 -13.523438 1.5 -14.609375 C 1.613281 -15.703125 1.828125 -16.75 2.140625 -17.75 C 2.460938 -18.75 2.945312 -19.628906 3.59375 -20.390625 C 4.375 -21.316406 5.242188 -21.984375 6.203125 -22.390625 C 7.171875 -22.804688 8.109375 -23.0625 9.015625 -23.15625 C 9.929688 -23.257812 10.664062 -23.3125 11.21875 -23.3125 L 20.59375 -23.3125 L 20.59375 -19.828125 L 13.296875 -19.828125 C 11.984375 -19.828125 10.796875 -19.707031 9.734375 -19.46875 C 8.679688 -19.238281 7.820312 -18.632812 7.15625 -17.65625 C 6.800781 -17.144531 6.492188 -16.40625 6.234375 -15.4375 C 5.984375 -14.46875 5.859375 -13.117188 5.859375 -11.390625 C 5.859375 -9.640625 5.984375 -8.351562 6.234375 -7.53125 C 6.492188 -6.707031 6.738281 -6.109375 6.96875 -5.734375 C 7.5625 -4.816406 8.378906 -4.210938 9.421875 -3.921875 C 10.472656 -3.640625 11.6875 -3.5 13.0625 -3.5 L 20.953125 -3.5 Z M 20.953125 0 "/></g></g></g><g fill="#d50404" fill-opacity="1"><g transform="translate(242.633843, 203.030295)"><g><path d="M 22.921875 -23.3125 L 22.921875 0 L 18.515625 0 L 18.515625 -10.265625 L 6.390625 -10.265625 L 6.390625 0 L 2 0 L 2 -23.3125 L 6.390625 -23.3125 L 6.390625 -13.765625 L 18.515625 -13.765625 L 18.515625 -23.3125 Z M 22.921875 -23.3125 "/></g></g></g></svg>