<svg width="22" height="19" viewBox="0 0 22 19" fill="none" xmlns="http://www.w3.org/2000/svg">
<g id="Group">
<g id="Group_2">
<g id="Group_3">
<path id="Vector" d="M18.0498 4.60648L13.6525 16.102C13.3899 16.757 13.1042 17.2648 12.7984 17.6255C12.4983 17.9862 11.9587 18.1679 11.1825 18.1679C10.643 18.1679 10.2159 18.0698 9.90141 17.8794C9.59267 17.6803 9.3503 17.4264 9.17429 17.1177C9.00405 16.8031 8.854 16.4655 8.72416 16.102L4.32679 4.60648C4.28639 4.51415 4.2258 4.39873 4.14212 4.26023C4.06421 4.11596 3.98342 4.04094 3.89974 4.04094C3.76701 4.04094 3.69199 4.12173 3.66891 4.28332C3.64583 4.43913 3.63429 4.53146 3.63429 4.56032L3.70354 17.9717H0.460327V2.81753C0.460327 2.25775 0.578629 1.82206 0.818119 1.51332C1.05472 1.19881 1.33749 0.97663 1.66066 0.843901C1.9896 0.714057 2.30699 0.633265 2.60708 0.601526C2.91293 0.572671 3.12645 0.555359 3.24187 0.555359C3.89397 0.555359 4.41335 0.659234 4.79999 0.866984C5.18375 1.06896 5.48672 1.33442 5.71179 1.66336C5.93396 1.98653 6.11863 2.35297 6.26579 2.75982L10.7209 14.2553C10.8045 14.44 10.8825 14.5958 10.9517 14.717C11.0267 14.8324 11.1046 14.8901 11.1825 14.8901C11.2662 14.8901 11.3441 14.8324 11.4134 14.717C11.4884 14.5958 11.5692 14.44 11.6557 14.2553L16.1108 2.75982C16.3561 2.10771 16.6331 1.62585 16.9418 1.31711C17.2563 1.0026 17.6026 0.797734 17.9806 0.705401C18.3557 0.607297 18.7423 0.555359 19.1347 0.555359C19.9427 0.555359 20.6063 0.73714 21.1315 1.09782C21.6537 1.45272 21.9163 2.02692 21.9163 2.81753V17.9717H18.6731L18.7654 4.56032C18.7654 4.32948 18.725 4.1881 18.65 4.13328C18.5807 4.07268 18.523 4.04094 18.4769 4.04094C18.3903 4.04094 18.3066 4.11596 18.223 4.26023C18.145 4.39873 18.0873 4.51415 18.0498 4.60648Z" fill="black"/>
</g>
</g>
</g>
</svg>
