<svg width="111" height="135" viewBox="0 0 111 135" fill="none" xmlns="http://www.w3.org/2000/svg">
  <g id="Clip path group">
    <mask id="mask0_7_2301" style="mask-type:luminance" maskUnits="userSpaceOnUse" x="0" y="0" width="111" height="135">
      <g id="b8a499ab6e">
        <path id="Vector" d="M0.363342 0.471771H110.803V134.54H0.363342V0.471771Z" fill="white"/>
      </g>
    </mask>
    <g mask="url(#mask0_7_2301)">
      <g id="Group">
        <path id="Vector_2" d="M81.0251 126.634C48.4227 126.634 21.9952 100.16 21.9952 67.506C21.9952 34.8488 48.4227 8.37515 81.0251 8.37515C91.6059 8.37515 101.526 11.1769 110.113 16.059C98.5049 6.34381 83.5613 0.492188 67.253 0.492188C30.3052 0.492188 0.351685 30.4947 0.351685 67.506C0.351685 104.514 30.3052 134.517 67.253 134.517C83.5613 134.517 98.502 128.665 110.113 118.95C101.526 123.832 91.6059 126.634 81.0251 126.634Z" fill="#4E77AD"/>
      </g>
    </g>
  </g>
</svg>
