<svg width="277" height="277" viewBox="0 0 277 277" fill="none" xmlns="http://www.w3.org/2000/svg">
<mask id="mask0_7_2296" style="mask-type:luminance" maskUnits="userSpaceOnUse" x="65" y="71" width="111" height="135">
<path d="M65.3633 71.4718H175.803V205.54H65.3633V71.4718Z" fill="white"/>
</mask>
<g mask="url(#mask0_7_2296)">
<path d="M146.025 197.634C113.423 197.634 86.9952 171.16 86.9952 138.506C86.9952 105.849 113.423 79.3751 146.025 79.3751C156.606 79.3751 166.526 82.1769 175.113 87.059C163.505 77.3438 148.561 71.4922 132.253 71.4922C95.3052 71.4922 65.3517 101.495 65.3517 138.506C65.3517 175.514 95.3052 205.517 132.253 205.517C148.561 205.517 163.502 199.665 175.113 189.95C166.526 194.832 156.606 197.634 146.025 197.634Z" fill="#163B6D"/>
</g>
<mask id="mask1_7_2296" style="mask-type:luminance" maskUnits="userSpaceOnUse" x="110" y="84" width="89" height="109">
<path d="M110.8 84.9467H198.877V192.053H110.8V84.9467Z" fill="white"/>
</mask>
<g mask="url(#mask1_7_2296)">
<path d="M134.426 185.726C160.461 185.726 181.568 164.584 181.568 138.506C181.568 112.425 160.461 91.2831 134.426 91.2831C125.98 91.2831 118.057 93.5221 111.198 97.4203C120.469 89.6614 132.4 84.99 145.425 84.99C174.934 84.99 198.851 108.948 198.851 138.506C198.851 168.061 174.934 192.022 145.425 192.022C132.4 192.022 120.469 187.347 111.198 179.588C118.057 183.487 125.98 185.726 134.426 185.726Z" fill="#4F4C4C"/>
</g>
<mask id="mask2_7_2296" style="mask-type:luminance" maskUnits="userSpaceOnUse" x="59" y="121" width="146" height="41">
<path d="M59.8349 121.912H204.616V161.728H59.8349V121.912Z" fill="white"/>
</mask>
<g mask="url(#mask2_7_2296)">
<path d="M59.8349 121.912H204.634V161.728H59.8349V121.912Z" fill="white"/>
</g>
<path d="M103.322 164.465C102.906 164.465 102.528 164.393 102.191 164.246C101.859 164.102 101.596 163.897 101.406 163.634C101.221 163.366 101.129 163.052 101.129 162.688H102.214C102.237 162.959 102.341 163.181 102.526 163.357C102.716 163.528 102.981 163.611 103.322 163.611C103.674 163.611 103.948 163.528 104.141 163.357C104.34 163.19 104.441 162.971 104.441 162.7C104.441 162.492 104.378 162.324 104.257 162.192C104.133 162.062 103.98 161.961 103.795 161.892C103.616 161.817 103.368 161.739 103.045 161.661C102.644 161.554 102.318 161.447 102.064 161.338C101.81 161.222 101.591 161.049 101.406 160.818C101.227 160.587 101.141 160.276 101.141 159.883C101.141 159.531 101.227 159.22 101.406 158.949C101.591 158.68 101.839 158.475 102.156 158.337C102.479 158.193 102.852 158.118 103.276 158.118C103.882 158.118 104.375 158.268 104.753 158.568C105.137 158.868 105.353 159.28 105.399 159.803H104.268C104.251 159.58 104.144 159.387 103.945 159.226C103.752 159.064 103.495 158.983 103.172 158.983C102.878 158.983 102.641 159.061 102.456 159.214C102.272 159.361 102.179 159.572 102.179 159.849C102.179 160.042 102.237 160.201 102.352 160.322C102.468 160.446 102.612 160.541 102.791 160.611C102.976 160.68 103.221 160.758 103.53 160.841C103.945 160.957 104.28 161.072 104.534 161.188C104.794 161.297 105.013 161.47 105.192 161.707C105.376 161.938 105.469 162.255 105.469 162.653C105.469 162.971 105.382 163.265 105.215 163.542C105.045 163.819 104.799 164.044 104.476 164.212C104.153 164.382 103.766 164.465 103.322 164.465Z" fill="#4F4C52"/>
<path d="M111.308 164.465C110.731 164.465 110.2 164.333 109.715 164.062C109.231 163.793 108.844 163.415 108.561 162.93C108.284 162.446 108.146 161.9 108.146 161.292C108.146 160.686 108.284 160.143 108.561 159.664C108.844 159.179 109.231 158.804 109.715 158.533C110.2 158.256 110.731 158.118 111.308 158.118C111.891 158.118 112.428 158.256 112.912 158.533C113.397 158.804 113.778 159.179 114.055 159.664C114.338 160.143 114.482 160.686 114.482 161.292C114.482 161.9 114.338 162.446 114.055 162.93C113.778 163.415 113.397 163.793 112.912 164.062C112.428 164.333 111.891 164.465 111.308 164.465ZM111.308 163.588C111.724 163.588 112.087 163.496 112.405 163.311C112.728 163.121 112.982 162.85 113.166 162.503C113.351 162.151 113.443 161.747 113.443 161.292C113.443 160.83 113.351 160.426 113.166 160.08C112.982 159.733 112.728 159.474 112.405 159.295C112.087 159.11 111.724 159.018 111.308 159.018C110.898 159.018 110.535 159.11 110.212 159.295C109.888 159.474 109.635 159.733 109.45 160.08C109.271 160.426 109.184 160.83 109.184 161.292C109.184 161.747 109.271 162.151 109.45 162.503C109.635 162.85 109.888 163.121 110.212 163.311C110.535 163.496 110.898 163.588 111.308 163.588Z" fill="#4F4C52"/>
<path d="M118.305 163.588H120.406V164.408H117.29V158.198H118.305V163.588Z" fill="#4F4C52"/>
<path d="M124.077 158.198V162.157C124.077 162.627 124.199 162.982 124.447 163.219C124.692 163.458 125.035 163.577 125.474 163.577C125.918 163.577 126.265 163.458 126.513 163.219C126.758 162.982 126.882 162.627 126.882 162.157V158.198H127.909V162.134C127.909 162.642 127.797 163.075 127.575 163.427C127.349 163.782 127.055 164.044 126.686 164.212C126.316 164.382 125.907 164.465 125.462 164.465C125.015 164.465 124.608 164.382 124.239 164.212C123.875 164.044 123.587 163.782 123.373 163.427C123.157 163.075 123.05 162.642 123.05 162.134V158.198H124.077Z" fill="#4F4C52"/>
<path d="M135.048 158.198V159.029H133.386V164.408H132.37V159.029H130.708V158.198H135.048Z" fill="#4F4C52"/>
<path d="M138.891 158.198V164.408H137.875V158.198H138.891Z" fill="#4F4C52"/>
<path d="M144.867 164.465C144.29 164.465 143.759 164.333 143.274 164.062C142.789 163.793 142.403 163.415 142.12 162.93C141.843 162.446 141.704 161.9 141.704 161.292C141.704 160.686 141.843 160.143 142.12 159.664C142.403 159.179 142.789 158.804 143.274 158.533C143.759 158.256 144.29 158.118 144.867 158.118C145.45 158.118 145.986 158.256 146.471 158.533C146.956 158.804 147.337 159.179 147.614 159.664C147.897 160.143 148.041 160.686 148.041 161.292C148.041 161.9 147.897 162.446 147.614 162.93C147.337 163.415 146.956 163.793 146.471 164.062C145.986 164.333 145.45 164.465 144.867 164.465ZM144.867 163.588C145.282 163.588 145.646 163.496 145.963 163.311C146.286 163.121 146.54 162.85 146.725 162.503C146.91 162.151 147.002 161.747 147.002 161.292C147.002 160.83 146.91 160.426 146.725 160.08C146.54 159.733 146.286 159.474 145.963 159.295C145.646 159.11 145.282 159.018 144.867 159.018C144.457 159.018 144.094 159.11 143.77 159.295C143.447 159.474 143.193 159.733 143.009 160.08C142.83 160.426 142.743 160.83 142.743 161.292C142.743 161.747 142.83 162.151 143.009 162.503C143.193 162.85 143.447 163.121 143.77 163.311C144.094 163.496 144.457 163.588 144.867 163.588Z" fill="#4F4C52"/>
<path d="M155.95 164.408H154.934L151.864 159.768V164.408H150.849V158.187H151.864L154.934 162.815V158.187H155.95V164.408Z" fill="#4F4C52"/>
<path d="M161.138 164.465C160.722 164.465 160.344 164.393 160.007 164.246C159.675 164.102 159.412 163.897 159.222 163.634C159.037 163.366 158.945 163.052 158.945 162.688H160.03C160.053 162.959 160.157 163.181 160.342 163.357C160.532 163.528 160.797 163.611 161.138 163.611C161.49 163.611 161.764 163.528 161.957 163.357C162.156 163.19 162.257 162.971 162.257 162.7C162.257 162.492 162.194 162.324 162.073 162.192C161.949 162.062 161.796 161.961 161.611 161.892C161.432 161.817 161.184 161.739 160.861 161.661C160.46 161.554 160.134 161.447 159.88 161.338C159.626 161.222 159.407 161.049 159.222 160.818C159.043 160.587 158.957 160.276 158.957 159.883C158.957 159.531 159.043 159.22 159.222 158.949C159.407 158.68 159.655 158.475 159.972 158.337C160.295 158.193 160.668 158.118 161.092 158.118C161.698 158.118 162.191 158.268 162.569 158.568C162.953 158.868 163.169 159.28 163.215 159.803H162.084C162.067 159.58 161.96 159.387 161.761 159.226C161.568 159.064 161.311 158.983 160.988 158.983C160.694 158.983 160.457 159.061 160.272 159.214C160.088 159.361 159.995 159.572 159.995 159.849C159.995 160.042 160.053 160.201 160.168 160.322C160.284 160.446 160.428 160.541 160.607 160.611C160.792 160.68 161.037 160.758 161.346 160.841C161.761 160.957 162.096 161.072 162.35 161.188C162.609 161.297 162.829 161.47 163.008 161.707C163.192 161.938 163.285 162.255 163.285 162.653C163.285 162.971 163.198 163.265 163.031 163.542C162.861 163.819 162.615 164.044 162.292 164.212C161.969 164.382 161.582 164.465 161.138 164.465Z" fill="#4F4C52"/>
<path d="M66.0751 149.972L72.5731 134.494C72.8789 133.773 73.2339 133.268 73.6349 132.982C74.0418 132.7 74.6304 132.555 75.4008 132.555C76.1395 132.555 76.7166 132.7 77.1321 132.982C77.5533 133.268 77.9198 133.773 78.2285 134.494L84.7265 149.972H81.3101L79.5327 145.621H71.2458L69.4915 149.972H66.0751ZM74.9045 136.295L72.0768 143.301H78.7017L75.8971 136.295C75.8423 136.165 75.773 136.015 75.6893 135.845C75.6114 135.669 75.5162 135.579 75.4008 135.579C75.2854 135.579 75.1844 135.669 75.1007 135.845C75.0228 136.015 74.9564 136.165 74.9045 136.295Z" fill="black"/>
<path d="M103.05 136.606L98.6525 148.102C98.3899 148.757 98.1042 149.265 97.7984 149.625C97.4983 149.986 96.9587 150.168 96.1825 150.168C95.643 150.168 95.2159 150.07 94.9014 149.879C94.5927 149.68 94.3503 149.426 94.1743 149.118C94.004 148.803 93.854 148.466 93.7242 148.102L89.3268 136.606C89.2864 136.514 89.2258 136.399 89.1421 136.26C89.0642 136.116 88.9834 136.041 88.8997 136.041C88.767 136.041 88.692 136.122 88.6689 136.283C88.6458 136.439 88.6343 136.531 88.6343 136.56L88.7035 149.972H85.4603V134.818C85.4603 134.258 85.5786 133.822 85.8181 133.513C86.0547 133.199 86.3375 132.977 86.6607 132.844C86.9896 132.714 87.307 132.633 87.6071 132.602C87.9129 132.573 88.1265 132.555 88.2419 132.555C88.894 132.555 89.4133 132.659 89.8 132.867C90.1838 133.069 90.4867 133.334 90.7118 133.663C90.934 133.987 91.1186 134.353 91.2658 134.76L95.7209 146.255C95.8045 146.44 95.8825 146.596 95.9517 146.717C96.0267 146.832 96.1046 146.89 96.1825 146.89C96.2662 146.89 96.3441 146.832 96.4134 146.717C96.4884 146.596 96.5692 146.44 96.6557 146.255L101.111 134.76C101.356 134.108 101.633 133.626 101.942 133.317C102.256 133.003 102.603 132.798 102.981 132.705C103.356 132.607 103.742 132.555 104.135 132.555C104.943 132.555 105.606 132.737 106.131 133.098C106.654 133.453 106.916 134.027 106.916 134.818V149.972H103.673L103.765 136.56C103.765 136.329 103.725 136.188 103.65 136.133C103.581 136.073 103.523 136.041 103.477 136.041C103.39 136.041 103.307 136.116 103.223 136.26C103.145 136.399 103.087 136.514 103.05 136.606Z" fill="black"/>
<path d="M109.342 149.972V147.386H118.887C119.418 147.386 119.79 147.271 120.006 147.04C120.229 146.809 120.367 146.55 120.422 146.255C120.483 145.964 120.514 145.719 120.514 145.517C120.514 145.188 120.422 144.841 120.237 144.478C120.058 144.109 119.594 143.808 118.841 143.578L112.054 141.431C111.985 141.416 111.826 141.359 111.581 141.258C111.333 141.16 111.062 141.021 110.762 140.842C110.467 140.666 110.219 140.435 110.011 140.15C109.619 139.697 109.371 139.163 109.273 138.545C109.172 137.931 109.123 137.386 109.123 136.907C109.123 136.384 109.183 135.833 109.307 135.256C109.429 134.679 109.737 134.165 110.231 133.709C110.669 133.28 111.142 133.014 111.65 132.913C112.164 132.806 112.634 132.752 113.058 132.752H122.973V135.325H114.166C113.936 135.325 113.699 135.348 113.462 135.395C113.223 135.435 113.006 135.545 112.816 135.729C112.6 135.923 112.47 136.151 112.424 136.41C112.383 136.673 112.366 136.889 112.366 137.057C112.366 137.435 112.458 137.795 112.643 138.141C112.833 138.482 113.278 138.765 113.97 138.996L120.272 140.992C121.14 141.255 121.819 141.546 122.303 141.869C122.788 142.187 123.134 142.582 123.342 143.058C123.573 143.497 123.714 143.947 123.769 144.409C123.83 144.87 123.861 145.248 123.861 145.54C123.861 146.088 123.807 146.645 123.7 147.213C123.59 147.776 123.356 148.284 122.996 148.737C122.572 149.299 122.098 149.646 121.576 149.775C121.051 149.908 120.503 149.972 119.926 149.972H109.342Z" fill="black"/>
<path d="M129.314 149.972H126.071V132.752H129.314V149.972Z" fill="black"/>
<path d="M140.511 149.972H137.267V135.325H130.55V132.752H147.251V135.325H140.511V149.972Z" fill="black"/>
<path d="M162.284 149.972H151.088C150.71 149.972 150.355 149.954 150.026 149.914C149.703 149.868 149.397 149.706 149.115 149.429C148.82 149.152 148.641 148.829 148.572 148.46C148.509 148.09 148.48 147.741 148.48 147.409V135.21C148.48 134.457 148.676 133.857 149.068 133.409C149.345 133.104 149.674 132.919 150.061 132.855C150.453 132.786 150.811 132.752 151.134 132.752H162.18V135.325H152.889C152.733 135.325 152.58 135.343 152.427 135.371C152.271 135.395 152.13 135.464 152 135.579C151.867 135.712 151.786 135.85 151.758 135.995C151.735 136.142 151.723 136.28 151.723 136.41V139.884H161.937V142.47H151.723V146.498C151.723 146.829 151.807 147.052 151.977 147.167C152.069 147.268 152.208 147.329 152.392 147.352C152.583 147.375 152.814 147.386 153.085 147.386H162.284V149.972Z" fill="black"/>
<path d="M178.493 149.972H171.233C170.694 149.972 170.096 149.931 169.444 149.845C168.798 149.752 168.155 149.565 167.517 149.279C166.876 148.988 166.288 148.546 165.751 147.952C165.203 147.346 164.807 146.668 164.562 145.921C164.314 145.176 164.158 144.426 164.089 143.67C164.025 142.917 163.997 142.227 163.997 141.604C163.997 140.79 164.037 139.982 164.124 139.18C164.207 138.372 164.366 137.599 164.597 136.86C164.833 136.122 165.191 135.472 165.67 134.91C166.247 134.226 166.888 133.733 167.598 133.432C168.313 133.127 169.006 132.936 169.675 132.867C170.35 132.792 170.893 132.752 171.303 132.752H178.228V135.325H172.838C171.868 135.325 170.991 135.415 170.206 135.591C169.427 135.761 168.792 136.208 168.302 136.93C168.039 137.308 167.811 137.853 167.621 138.569C167.436 139.284 167.344 140.282 167.344 141.558C167.344 142.85 167.436 143.803 167.621 144.409C167.811 145.017 167.993 145.459 168.163 145.736C168.602 146.414 169.205 146.861 169.975 147.075C170.751 147.282 171.649 147.386 172.664 147.386H178.493V149.972Z" fill="black"/>
<path d="M196.157 132.752V149.972H192.902V142.389H183.946V149.972H180.703V132.752H183.946V139.803H192.902V132.752H196.157Z" fill="black"/>
</svg>
