<svg width="8" height="7" viewBox="0 0 8 7" fill="none" xmlns="http://www.w3.org/2000/svg">
<g id="Group">
<g id="Group_2">
<g id="Group_3">
<path id="Vector" d="M3.86682 6.46547C3.28974 6.46547 2.75882 6.33274 2.27407 6.06151C1.78932 5.79317 1.40268 5.41518 1.11991 4.93043C0.842907 4.44568 0.704407 3.90034 0.704407 3.29151C0.704407 2.68558 0.842907 2.14312 1.11991 1.66414C1.40268 1.17939 1.78932 0.804283 2.27407 0.533054C2.75882 0.256054 3.28974 0.117554 3.86682 0.117554C4.44968 0.117554 4.98637 0.256054 5.47112 0.533054C5.95587 0.804283 6.33674 1.17939 6.61374 1.66414C6.89651 2.14312 7.04078 2.68558 7.04078 3.29151C7.04078 3.90034 6.89651 4.44568 6.61374 4.93043C6.33674 5.41518 5.95587 5.79317 5.47112 6.06151C4.98637 6.33274 4.44968 6.46547 3.86682 6.46547ZM3.86682 5.5883C4.28232 5.5883 4.64589 5.49597 4.96328 5.3113C5.28645 5.12087 5.54037 4.84964 5.72503 4.50339C5.9097 4.15137 6.00203 3.74741 6.00203 3.29151C6.00203 2.82985 5.9097 2.42589 5.72503 2.07964C5.54037 1.73339 5.28645 1.4737 4.96328 1.2948C4.64589 1.11014 4.28232 1.0178 3.86682 1.0178C3.45709 1.0178 3.09353 1.11014 2.77037 1.2948C2.4472 1.4737 2.19328 1.73339 2.00862 2.07964C1.82972 2.42589 1.74316 2.82985 1.74316 3.29151C1.74316 3.74741 1.82972 4.15137 2.00862 4.50339C2.19328 4.84964 2.4472 5.12087 2.77037 5.3113C3.09353 5.49597 3.45709 5.5883 3.86682 5.5883Z" fill="#4F4C52"/>
</g>
</g>
</g>
</svg>
