<svg width="7" height="7" viewBox="0 0 7 7" fill="none" xmlns="http://www.w3.org/2000/svg">
<g id="Group">
<g id="Group_2">
<g id="Group_3">
<path id="Vector" d="M3.30811 6.46547C2.73102 6.46547 2.20011 6.33274 1.71536 6.06151C1.23061 5.79317 0.843962 5.41518 0.561191 4.93043C0.284191 4.44568 0.145691 3.90034 0.145691 3.29151C0.145691 2.68558 0.284191 2.14312 0.561191 1.66414C0.843962 1.17939 1.23061 0.804283 1.71536 0.533054C2.20011 0.256054 2.73102 0.117554 3.30811 0.117554C3.89096 0.117554 4.42765 0.256054 4.9124 0.533054C5.39715 0.804283 5.77802 1.17939 6.05502 1.66414C6.3378 2.14312 6.48207 2.68558 6.48207 3.29151C6.48207 3.90034 6.3378 4.44568 6.05502 4.93043C5.77802 5.41518 5.39715 5.79317 4.9124 6.06151C4.42765 6.33274 3.89096 6.46547 3.30811 6.46547ZM3.30811 5.5883C3.72361 5.5883 4.08717 5.49597 4.40457 5.3113C4.72773 5.12087 4.98165 4.84964 5.16632 4.50339C5.35098 4.15137 5.44332 3.74741 5.44332 3.29151C5.44332 2.82985 5.35098 2.42589 5.16632 2.07964C4.98165 1.73339 4.72773 1.4737 4.40457 1.2948C4.08717 1.11014 3.72361 1.0178 3.30811 1.0178C2.89838 1.0178 2.53482 1.11014 2.21165 1.2948C1.88848 1.4737 1.63457 1.73339 1.4499 2.07964C1.271 2.42589 1.18444 2.82985 1.18444 3.29151C1.18444 3.74741 1.271 4.15137 1.4499 4.50339C1.63457 4.84964 1.88848 5.12087 2.21165 5.3113C2.53482 5.49597 2.89838 5.5883 3.30811 5.5883Z" fill="#4F4C52"/>
</g>
</g>
</g>
</svg>
