<svg width="96" height="52" viewBox="0 0 96 52" fill="none" xmlns="http://www.w3.org/2000/svg">
<path d="M48 0C35.0156 0 23.2422 2.71875 14.5469 7.25781C5.85156 11.7969 0 18.3359 0 26C0 33.6641 5.85156 40.2031 14.5469 44.7422C23.2422 49.2812 35.0156 52 48 52C60.9844 52 72.7578 49.2812 81.4531 44.7422C90.1484 40.2031 96 33.6641 96 26C96 18.3359 90.1484 11.7969 81.4531 7.25781C72.7578 2.71875 60.9844 0 48 0ZM48 4C60.4219 4 71.6484 6.64844 79.6016 10.8047C87.5547 14.9531 92 20.4062 92 26C92 31.5938 87.5547 37.0469 79.6016 41.1953C71.6484 45.3516 60.4219 48 48 48C35.5781 48 24.3516 45.3516 16.3984 41.1953C8.44531 37.0469 4 31.5938 4 26C4 20.4062 8.44531 14.9531 16.3984 10.8047C24.3516 6.64844 35.5781 4 48 4ZM43.0156 8L38 32H43.25L45.7812 20H49.9766C51.3125 20 52.2031 20.2188 52.6172 20.6641C53.0234 21.1094 53.1094 21.9531 52.875 23.1641L50.9609 32H56.2891L58.3672 22.4453C58.8125 20.1562 58.4766 18.4766 57.3672 17.4531C56.2344 16.4141 54.2422 16 51.2734 16H46.5938L48.2578 8H43.0156ZM20 16L15.9453 38H21.2344L22.2891 32H25.5859C32.4766 32 36.2266 30.4062 37.625 24.4922C38.8281 19.4062 35.75 16 30.6641 16H20ZM62 16L57.9453 38H63.2344L64.2891 32H67.5859C74.4766 32 78.2266 30.4062 79.625 24.4922C80.8281 19.4062 77.75 16 72.6641 16H62ZM24.5469 20H28.6641C32.0859 20 32.8047 21.5391 32.625 23.25C32.1641 27.6641 29.4141 28 26.4609 28H23.0312L24.5469 20ZM66.5469 20H70.6641C74.0859 20 74.8047 21.5391 74.625 23.25C74.1641 27.6641 71.4141 28 68.4609 28H65.0312L66.5469 20Z" fill="#163B6D"/>
</svg>
