<svg width="80" height="80" viewBox="0 0 80 80" fill="none" xmlns="http://www.w3.org/2000/svg">
<path d="M33.3333 0C25.97 0 20 5.97 20 13.3333V16.6667H36.6667C38.5067 16.6667 40 18.16 40 20C40 21.84 38.5067 23.3333 36.6667 23.3333H20H16.6667H13.3333C5.97 23.3333 0 29.3033 0 36.6667V50C0 57.3633 5.97 63.3333 13.3333 63.3333H16.6667V46.6667C16.6667 41.1533 21.1533 36.6667 26.6667 36.6667H53.3333C55.1733 36.6667 56.6667 35.1733 56.6667 33.3333V13.3333C56.6667 5.97 50.6967 0 43.3333 0H33.3333ZM30 6.66667C31.84 6.66667 33.3333 8.16 33.3333 10C33.3333 11.84 31.84 13.3333 30 13.3333C28.16 13.3333 26.6667 11.84 26.6667 10C26.6667 8.16 28.16 6.66667 30 6.66667ZM63.3333 16.6667V33.3333C63.3333 38.8467 58.8467 43.3333 53.3333 43.3333H26.6667C24.8267 43.3333 23.3333 44.8267 23.3333 46.6667V66.6667C23.3333 74.03 29.3033 80 36.6667 80H46.6667C54.03 80 60 74.03 60 66.6667V63.3333H43.3333C41.4933 63.3333 40 61.84 40 60C40 58.16 41.4933 56.6667 43.3333 56.6667H60H63.3333H66.6667C74.03 56.6667 80 50.6967 80 43.3333V30C80 22.6367 74.03 16.6667 66.6667 16.6667H63.3333ZM50 66.6667C51.84 66.6667 53.3333 68.16 53.3333 70C53.3333 71.84 51.84 73.3333 50 73.3333C48.16 73.3333 46.6667 71.84 46.6667 70C46.6667 68.16 48.16 66.6667 50 66.6667Z" fill="#163B6D"/>
</svg>
