<svg width="90" height="80" viewBox="0 0 90 80" fill="none" xmlns="http://www.w3.org/2000/svg">
<path d="M28.7988 0C26.5076 0 24.3825 0.505737 22.5 1.57429C16.6167 4.92338 14.3774 13.0848 15.564 23.2461C6.04763 27.3135 0 33.3027 0 40C0 46.6973 6.04763 52.6865 15.564 56.7539C14.378 66.9148 16.6167 75.0766 22.5 78.4257C24.3787 79.4943 26.5038 80 28.7988 80C33.6837 80 39.3294 77.5827 45 73.4356C50.6711 77.5827 56.3237 80 61.2085 80C63.4997 80 65.6248 79.4943 67.5073 78.4257C73.3906 75.0766 75.6299 66.9151 74.4434 56.7539C83.9561 52.6865 90 46.6958 90 40C90 33.3027 83.9524 27.3135 74.436 23.2461C75.622 13.0852 73.3833 4.92338 67.5 1.57429C65.6212 0.50204 63.4962 0 61.2012 0C56.3163 0 50.6706 2.41726 45 6.56436C39.3291 2.41726 33.682 0 28.7988 0ZM28.7988 6.47048C31.73 6.47048 35.6061 8.00716 39.8145 10.8539C37.3401 13.1563 34.9168 15.7743 32.5854 18.6893C28.804 19.2239 25.2388 20.0032 21.936 20.9785C21.9183 20.7527 21.8763 20.5157 21.8628 20.2925C21.4615 13.7111 22.9275 8.80505 25.7812 7.17819C26.625 6.69753 27.6101 6.47048 28.7988 6.47048ZM61.2012 6.47048C62.3862 6.47048 63.375 6.69753 64.2188 7.17819C67.0725 8.80136 68.5385 13.7111 68.1372 20.2925C68.1236 20.5157 68.0818 20.7527 68.064 20.9785C64.7591 20.0026 61.1913 19.2239 57.4072 18.6893C55.0759 15.7747 52.6598 13.156 50.1855 10.8539C54.3936 8.00763 58.2716 6.47048 61.2012 6.47048ZM45 14.963C46.0165 15.8753 47.026 16.8395 48.0469 17.8949C47.0352 17.8614 46.0289 17.8155 45 17.8155C43.9736 17.8155 42.9697 17.8616 41.9604 17.8949C42.9804 16.8406 43.9844 15.8744 45 14.963ZM45 24.286C48.1076 24.286 51.053 24.4572 53.8477 24.7554C55.552 27.0394 57.2317 29.4543 58.8062 32.143C60.3153 34.7202 61.6498 37.3582 62.8271 40C61.6496 42.6434 60.3162 45.2855 58.8062 47.8642C57.2365 50.5452 55.561 52.9445 53.8623 55.223C50.9689 55.5351 48.0008 55.714 45 55.714C41.8924 55.714 38.947 55.5428 36.1523 55.2446C34.448 52.9606 32.7683 50.553 31.1938 47.8642C29.6838 45.2855 28.3507 42.6434 27.1729 40C28.3499 37.3582 29.6847 34.7202 31.1938 32.143C32.7641 29.462 34.4385 27.0555 36.1377 24.777C39.0311 24.4649 41.9992 24.286 45 24.286ZM62.7979 26.2863C64.2857 26.6405 65.716 27.0228 67.0605 27.449C66.7559 28.8061 66.3834 30.1893 65.9619 31.5869C65.4794 30.6941 65.0114 29.7985 64.4897 28.9077C63.953 27.9915 63.3572 27.1683 62.7979 26.2863ZM27.1948 26.2936C26.6374 27.1728 26.0453 27.9944 25.5103 28.9077C24.9888 29.7986 24.5205 30.694 24.0381 31.5869C23.6157 30.1864 23.2371 28.8016 22.9321 27.4418C24.3014 27.0152 25.7281 26.6375 27.1948 26.2936ZM16.7578 29.8177C17.5479 33.107 18.644 36.5167 20.0537 39.9928C18.647 43.4606 17.5555 46.8641 16.7651 50.1462C10.2346 47.0369 6.5625 43.1664 6.5625 40C6.5625 36.75 10.132 33.0461 16.1133 30.0993C16.3174 29.9986 16.5492 29.916 16.7578 29.8177ZM73.2349 29.8538C79.7654 32.9631 83.4375 36.8336 83.4375 40C83.4375 43.25 79.868 46.9539 73.8867 49.9007C73.6826 50.0014 73.4508 50.084 73.2422 50.1823C72.4516 46.8911 71.3645 43.4782 69.9536 40C71.3587 36.5352 72.4451 33.1332 73.2349 29.8538ZM45 32.6052C40.8563 32.6052 37.5 35.9144 37.5 40C37.5 44.0856 40.8563 47.3948 45 47.3948C49.1437 47.3948 52.5 44.0856 52.5 40C52.5 35.9144 49.1437 32.6052 45 32.6052ZM24.0381 48.4131C24.5208 49.3062 24.9957 50.2012 25.5176 51.0923C26.0537 52.0078 26.6434 52.8323 27.2021 53.7137C25.7143 53.3595 24.284 52.9772 22.9395 52.551C23.2443 51.193 23.6163 49.8116 24.0381 48.4131ZM65.9619 48.4203C66.3839 49.8195 66.7632 51.1997 67.0679 52.5582C65.6986 52.9848 64.2719 53.3625 62.8052 53.7064C63.3626 52.8272 63.9547 52.0056 64.4897 51.0923C65.0102 50.2032 65.4804 49.3114 65.9619 48.4203ZM21.936 59.0215C25.2409 59.9974 28.8087 60.7761 32.5928 61.3107C34.9248 64.2268 37.3391 66.8504 39.8145 69.1533C35.6064 71.9992 31.7298 73.5367 28.7988 73.5367C27.6138 73.5367 26.625 73.3025 25.7812 72.8218C22.9275 71.1986 21.4615 66.2962 21.8628 59.7147C21.8765 59.4892 21.918 59.2497 21.936 59.0215ZM68.064 59.0215C68.0819 59.2497 68.1236 59.4892 68.1372 59.7147C68.5385 66.2962 67.0725 71.1949 64.2188 72.8218C63.375 73.3025 62.3899 73.5367 61.2012 73.5367C58.2702 73.5367 54.3936 71.9997 50.1855 69.1533C52.6611 66.8501 55.082 64.2272 57.4146 61.3107C61.196 60.7761 64.7612 59.9968 68.064 59.0215ZM41.9531 62.1051C42.9648 62.1386 43.9711 62.1845 45 62.1845C46.0289 62.1845 47.0352 62.1386 48.0469 62.1051C47.026 63.1605 46.0165 64.1248 45 65.037C43.9835 64.1247 42.974 63.1605 41.9531 62.1051Z" fill="#163B6D"/>
</svg>
