<svg width="15" height="18" viewBox="0 0 15 18" fill="none" xmlns="http://www.w3.org/2000/svg">
<g id="Group">
<g id="Group_2">
<g id="Group_3">
<path id="Vector" d="M0.341972 17.9717V15.3864H9.88693C10.4178 15.3864 10.7901 15.2709 11.0065 15.0401C11.2287 14.8093 11.3672 14.5496 11.422 14.2553C11.4826 13.9638 11.5143 13.7186 11.5143 13.5166C11.5143 13.1877 11.422 12.8414 11.2373 12.4779C11.0584 12.1085 10.5939 11.8084 9.84076 11.5776L3.05426 9.43086C2.98501 9.41643 2.82632 9.35872 2.58106 9.25773C2.33291 9.15963 2.06168 9.02113 1.7616 8.84223C1.46728 8.66622 1.21914 8.43539 1.01139 8.14973C0.618972 7.69672 0.370827 7.16292 0.272722 6.54544C0.171733 5.93085 0.122681 5.3855 0.122681 4.90653C0.122681 4.38427 0.183274 3.83315 0.307347 3.25607C0.428535 2.67898 0.737274 2.16538 1.23068 1.70948C1.66926 1.27956 2.14247 1.0141 2.65031 0.913109C3.16391 0.806349 3.63423 0.751526 4.05839 0.751526H13.9727V3.32532H5.16639C4.93556 3.32532 4.69895 3.3484 4.46235 3.39457C4.22286 3.43496 4.00645 3.54461 3.81601 3.72928C3.59961 3.9226 3.46976 4.15055 3.4236 4.41023C3.3832 4.67281 3.36589 4.88921 3.36589 5.05657C3.36589 5.43456 3.45822 5.79523 3.64289 6.14148C3.83333 6.48196 4.27768 6.76473 4.97018 6.99557L11.2719 8.99228C12.1404 9.25485 12.8185 9.54628 13.3033 9.86944C13.788 10.1868 14.1343 10.5821 14.342 11.0582C14.5728 11.4968 14.7142 11.9469 14.7691 12.4086C14.8297 12.8703 14.8614 13.2483 14.8614 13.5397C14.8614 14.0879 14.8066 14.6448 14.6998 15.2132C14.5902 15.7759 14.3564 16.2837 13.9958 16.7367C13.5716 17.2994 13.0984 17.6456 12.5761 17.7755C12.051 17.9082 11.5028 17.9717 10.9257 17.9717H0.341972Z" fill="black"/>
</g>
</g>
</g>
</svg>
