<svg width="6" height="7" viewBox="0 0 6 7" fill="none" xmlns="http://www.w3.org/2000/svg">
<g id="Group">
<g id="Group_2">
<g id="Group_3">
<path id="Vector" d="M3.13792 6.46547C2.72242 6.46547 2.34443 6.39334 2.00684 6.24618C1.67502 6.10191 1.41245 5.89704 1.22201 5.63447C1.03734 5.36613 0.945007 5.05162 0.945007 4.68805H2.02992C2.05301 4.95928 2.15688 5.18146 2.34155 5.35747C2.53199 5.52771 2.79745 5.61139 3.13792 5.61139C3.48995 5.61139 3.76406 5.52771 3.95738 5.35747C4.15648 5.19012 4.25747 4.97083 4.25747 4.6996C4.25747 4.49185 4.19399 4.32449 4.0728 4.19176C3.94873 4.06192 3.7958 3.96093 3.61113 3.89168C3.43224 3.81666 3.18409 3.73875 2.86092 3.66085C2.45985 3.55409 2.1338 3.44733 1.87988 3.33768C1.62597 3.22226 1.40667 3.04914 1.22201 2.8183C1.04311 2.58747 0.956549 2.27585 0.956549 1.88343C0.956549 1.53141 1.04311 1.21978 1.22201 0.948554C1.40667 0.68021 1.65482 0.475345 1.97222 0.336845C2.29538 0.192575 2.6676 0.117554 3.09176 0.117554C3.6977 0.117554 4.1911 0.267595 4.56909 0.567679C4.95285 0.867762 5.16926 1.28038 5.21542 1.80264H4.08434C4.06703 1.58046 3.96027 1.38714 3.76117 1.22555C3.56785 1.06397 3.31105 0.983179 2.98788 0.983179C2.69357 0.983179 2.45697 1.06109 2.2723 1.21401C2.08763 1.36117 1.9953 1.5718 1.9953 1.8488C1.9953 2.04213 2.05301 2.20082 2.16842 2.32201C2.28384 2.44609 2.42811 2.5413 2.60701 2.61055C2.79167 2.6798 3.03693 2.75771 3.34567 2.84139C3.76117 2.9568 4.09588 3.07222 4.3498 3.18764C4.60949 3.29728 4.82878 3.47041 5.00767 3.70701C5.19234 3.93785 5.28467 4.25524 5.28467 4.65343C5.28467 4.97083 5.19811 5.26514 5.03076 5.54214C4.86052 5.81914 4.61526 6.0442 4.29209 6.21155C3.96892 6.38179 3.58228 6.46547 3.13792 6.46547Z" fill="#4F4C52"/>
</g>
</g>
</g>
</svg>
