<svg width="5" height="7" viewBox="0 0 5 7" fill="none" xmlns="http://www.w3.org/2000/svg">
<g id="Group">
<g id="Group_2">
<g id="Group_3">
<path id="Vector" d="M2.32195 6.46547C1.90645 6.46547 1.52846 6.39334 1.19086 6.24618C0.859039 6.10191 0.596466 5.89704 0.406028 5.63447C0.221362 5.36613 0.129028 5.05162 0.129028 4.68805H1.21395C1.23703 4.95928 1.3409 5.18146 1.52557 5.35747C1.71601 5.52771 1.98147 5.61139 2.32195 5.61139C2.67397 5.61139 2.94808 5.52771 3.1414 5.35747C3.3405 5.19012 3.44149 4.97083 3.44149 4.6996C3.44149 4.49185 3.37801 4.32449 3.25682 4.19176C3.13275 4.06192 2.97982 3.96093 2.79515 3.89168C2.61626 3.81666 2.36811 3.73875 2.04495 3.66085C1.64387 3.55409 1.31782 3.44733 1.0639 3.33768C0.809987 3.22226 0.590695 3.04914 0.406028 2.8183C0.227133 2.58747 0.14057 2.27585 0.14057 1.88343C0.14057 1.53141 0.227133 1.21978 0.406028 0.948554C0.590695 0.68021 0.83884 0.475345 1.15624 0.336845C1.4794 0.192575 1.85162 0.117554 2.27578 0.117554C2.88172 0.117554 3.37512 0.267595 3.75311 0.567679C4.13687 0.867762 4.35328 1.28038 4.39945 1.80264H3.26836C3.25105 1.58046 3.14429 1.38714 2.9452 1.22555C2.75187 1.06397 2.49507 0.983179 2.1719 0.983179C1.87759 0.983179 1.64099 1.06109 1.45632 1.21401C1.27165 1.36117 1.17932 1.5718 1.17932 1.8488C1.17932 2.04213 1.23703 2.20082 1.35245 2.32201C1.46786 2.44609 1.61213 2.5413 1.79103 2.61055C1.9757 2.6798 2.22096 2.75771 2.5297 2.84139C2.9452 2.9568 3.2799 3.07222 3.53382 3.18764C3.79351 3.29728 4.0128 3.47041 4.1917 3.70701C4.37636 3.93785 4.4687 4.25524 4.4687 4.65343C4.4687 4.97083 4.38213 5.26514 4.21478 5.54214C4.04454 5.81914 3.79928 6.0442 3.47611 6.21155C3.15295 6.38179 2.7663 6.46547 2.32195 6.46547Z" fill="#4F4C52"/>
</g>
</g>
</g>
</svg>
