<svg width="5" height="7" viewBox="0 0 5 7" fill="none" xmlns="http://www.w3.org/2000/svg">
<g id="Group">
<g id="Group_2">
<g id="Group_3">
<path id="Vector" d="M1.07738 0.198334V4.15713C1.07738 4.62745 1.19857 4.98235 1.44671 5.21896C1.69197 5.45845 2.03534 5.57675 2.47392 5.57675C2.91828 5.57675 3.26453 5.45845 3.51267 5.21896C3.75793 4.98235 3.882 4.62745 3.882 4.15713V0.198334H4.90921V4.13404C4.90921 4.64188 4.79668 5.07469 4.5745 5.42671C4.34944 5.78162 4.05513 6.04419 3.6858 6.21154C3.31646 6.38178 2.90673 6.46546 2.46238 6.46546C2.01514 6.46546 1.6083 6.38178 1.23896 6.21154C0.8754 6.04419 0.586859 5.78162 0.373338 5.42671C0.156931 5.07469 0.0501709 4.64188 0.0501709 4.13404V0.198334H1.07738Z" fill="#4F4C52"/>
</g>
</g>
</g>
</svg>
